<svg width="2831" height="600" viewBox="0 0 2831 600" fill="none" xmlns="http://www.w3.org/2000/svg">
<g clip-path="url(#clip0_1899_17)">
<path d="M1022.53 328.255C1022.53 401.947 968.088 453.943 891.953 453.943C820.173 453.943 760.9 407.231 760.9 315.242V269.965C760.9 181.348 803.788 116.951 883.269 102.026L1000.7 87.4473V134.637L894.343 147.277C846.171 156.917 816.774 187.695 813.879 251.748C832.176 215.154 867.84 205.408 900.61 205.408C970.983 205.434 1022.53 255.04 1022.53 328.255ZM968.566 327.777C968.566 283.482 936.779 251.694 892.457 251.694C847.658 251.694 815.871 283.482 815.871 327.777C815.871 373.054 847.658 404.337 892.457 404.337C936.779 404.337 968.566 373.028 968.566 327.777Z" fill="#002E8D"/>
<path d="M1309.17 342.7C1309.36 334.813 1309.17 327.271 1308.64 319.995C1302.51 238.973 1251.15 194.359 1181.6 194.359C1107.3 194.359 1054.03 250.684 1054.03 324.881C1054.03 402.848 1109.66 454.42 1185.48 454.42C1241.51 454.42 1286.07 421.65 1301.5 379.559H1248.31C1236.04 396.183 1215.27 408.691 1185.93 408.691C1144.66 408.691 1112.55 381.684 1109.18 342.7H1309.17ZM1109.23 300.795C1112.08 265.184 1142.32 239.159 1181.63 239.159C1222.44 239.159 1251.18 265.635 1252.64 300.795H1109.23Z" fill="#002E8D"/>
<path d="M1327.68 401.92C1346.96 400.964 1367.17 390.369 1367.17 350.402V199.672H1563.39V449.614H1508.95V248.8H1420.68V351.385C1420.68 420.722 1379.73 452.031 1327.21 451.075L1327.68 401.92Z" fill="#002E8D"/>
<path d="M1712.15 316.224L1831.94 199.645H1768.53L1702.3 263.936L1665.01 300.131V199.645H1664.16H1613.76H1610.55V449.587H1613.76H1664.16H1665.01V332.37L1701.71 373.664L1769.03 449.587H1832.4L1712.15 316.224Z" fill="#002E8D"/>
<path d="M2049.79 199.407L2043.17 236.532C2021.72 210.295 1984.83 194.574 1951.64 194.574C1951.24 194.574 1950.89 194.627 1950.49 194.627C1949.91 194.627 1949.35 194.574 1948.74 194.574C1912.65 194.574 1883.28 207.772 1862.25 229.256C1861.24 230.265 1860.18 231.274 1859.2 232.31C1858.61 232.947 1858.05 233.664 1857.5 234.328C1837.23 257.246 1825.89 288.449 1825.89 324.113C1825.89 324.272 1825.92 324.432 1825.92 324.591C1825.92 324.75 1825.89 324.91 1825.89 325.069C1825.89 360.733 1837.23 391.963 1857.5 414.854C1858.08 415.518 1858.61 416.208 1859.2 416.872C1860.18 417.934 1861.24 418.917 1862.25 419.926C1883.28 441.41 1912.65 454.608 1948.74 454.608C1949.33 454.608 1949.91 454.555 1950.49 454.555C1950.89 454.555 1951.24 454.608 1951.64 454.608C1984.83 454.608 2021.72 438.887 2043.17 412.65V449.775H2098.57V449.297V199.912V199.434H2049.79V199.407ZM1962.71 404.577C1915.49 404.577 1881.77 371.356 1881.77 324.644C1881.77 277.933 1915.49 244.711 1962.71 244.711C2009.45 244.711 2042.7 279.393 2042.7 324.644C2042.7 369.895 2009.45 404.577 1962.71 404.577Z" fill="#002E8D"/>
<path d="M2145.62 199.408V199.886V561.867V562.345H2201.02V412.677C2222.47 438.914 2259.36 454.635 2292.55 454.635C2292.95 454.635 2293.3 454.582 2293.7 454.582C2294.28 454.582 2294.84 454.635 2295.45 454.635C2331.54 454.635 2360.91 441.437 2381.94 419.953C2382.95 418.944 2384.01 417.935 2384.99 416.9C2385.58 416.262 2386.14 415.545 2386.69 414.881C2406.96 391.964 2418.3 360.761 2418.3 325.096C2418.3 324.937 2418.27 324.778 2418.27 324.618C2418.27 324.459 2418.3 324.3 2418.3 324.14C2418.3 288.476 2406.96 257.247 2386.69 234.355C2386.11 233.692 2385.58 233.001 2384.99 232.337C2384.01 231.275 2382.95 230.292 2381.94 229.283C2360.91 207.8 2331.54 194.602 2295.45 194.602C2294.86 194.602 2294.28 194.655 2293.7 194.655C2293.3 194.655 2292.95 194.602 2292.55 194.602C2259.36 194.602 2222.47 210.323 2201.02 236.56L2194.4 199.435H2145.62V199.408ZM2201.52 324.618C2201.52 279.341 2234.77 244.686 2281.51 244.686C2328.72 244.686 2362.45 277.907 2362.45 324.618C2362.45 371.33 2328.72 404.551 2281.51 404.551C2234.77 404.578 2201.52 369.896 2201.52 324.618Z" fill="#002E8D"/>
<path d="M2830.84 293.705V449.932H2775.85V307.673C2775.85 262.343 2752.69 242.081 2721.81 242.081C2689.96 242.081 2665.85 263.299 2665.85 307.673V449.932H2610.86V307.673C2610.86 262.343 2587.22 242.081 2557.29 242.081C2524.97 242.081 2500.86 263.299 2500.86 307.673V449.932H2445.39V199.671H2493.77L2500.04 235.761C2514.51 210.214 2538.49 194.387 2575.64 194.387C2609.4 194.387 2637.07 208.275 2652.02 235.761C2668.43 210.214 2695.75 194.387 2736.28 194.387C2792.74 194.36 2830.84 232.468 2830.84 293.705Z" fill="#002E8D"/>
<path d="M268.132 471.841L170.433 567.654C163.874 574.081 163.98 582.313 166.238 587.89C168.495 593.467 174.204 599.415 183.366 599.442L355.288 599.999C368.513 600.052 379.48 589.324 379.719 576.073C379.719 575.382 379.746 574.665 379.746 573.948C379.852 536.292 364.901 499.433 338.531 472.532C319.278 452.934 287.73 452.615 268.132 471.841Z" fill="#32A8FF"/>
<path d="M155.964 398.973L19.1228 397.645C9.96105 397.566 4.19846 403.434 1.86156 408.985C-0.475347 414.535 -0.661236 422.767 5.79181 429.273L126.966 551.217C136.287 560.591 151.636 560.751 161.143 551.589C161.647 551.111 162.152 550.606 162.657 550.102C189.372 523.546 204.854 486.926 205.225 449.243C205.491 421.785 183.397 399.239 155.964 398.973Z" fill="#32A8FF"/>
<path d="M23.9269 379.693C24.6439 379.693 25.3344 379.719 26.0514 379.719C63.7074 379.825 100.567 364.874 127.468 338.505C147.066 319.305 147.358 287.73 128.158 268.132L32.3451 170.433C25.9186 163.874 17.6863 163.98 12.1096 166.238C6.53291 168.495 0.584423 174.204 0.557867 183.366L0.000196348 355.261C-0.0529151 368.486 10.6756 379.454 23.9269 379.693Z" fill="#32A8FF"/>
<path d="M49.8942 162.653C76.45 189.368 113.07 204.85 150.753 205.221C178.185 205.487 200.731 183.393 200.996 155.961L202.324 19.1189C202.404 9.95715 196.535 4.19456 190.985 1.85765C185.435 -0.479253 177.202 -0.665143 170.696 5.7879L48.7789 126.962C39.4047 136.283 39.2454 151.632 48.4071 161.139C48.9117 161.643 49.3897 162.148 49.8942 162.653Z" fill="#32A8FF"/>
<path d="M331.838 128.158L429.536 32.3451C436.096 25.9186 435.989 17.6863 433.732 12.1096C431.475 6.53291 425.765 0.584423 416.604 0.557867L244.708 0.000196348C231.484 -0.0529151 220.516 10.6756 220.277 23.9269C220.277 24.6439 220.251 25.3344 220.251 26.0514C220.144 63.7074 235.095 100.567 261.465 127.468C280.691 147.066 312.266 147.358 331.838 128.158Z" fill="#32A8FF"/>
<path d="M444.029 201.001L580.871 202.329C590.033 202.409 595.795 196.54 598.132 190.99C600.469 185.44 600.655 177.207 594.202 170.701L473.028 48.7574C463.707 39.3832 448.358 39.2239 438.851 48.3856C438.346 48.8636 437.842 49.3682 437.337 49.8728C410.622 76.4285 395.14 113.049 394.768 150.731C394.476 178.217 416.597 200.736 444.029 201.001Z" fill="#32A8FF"/>
<path d="M576.07 220.281C575.353 220.281 574.663 220.254 573.946 220.254C536.29 220.148 499.431 235.099 472.53 261.469C452.931 280.669 452.639 312.243 471.839 331.842L567.652 429.54C574.079 436.099 582.311 435.993 587.888 433.736C593.464 431.479 599.413 425.769 599.439 416.608L599.997 244.686C600.024 231.488 589.295 220.52 576.07 220.281Z" fill="#32A8FF"/>
<path d="M550.079 437.347C523.523 410.632 486.903 395.15 449.22 394.778C421.788 394.512 399.243 416.607 398.977 444.039L397.649 580.88C397.57 590.042 403.438 595.805 408.989 598.141C414.539 600.478 422.771 600.664 429.277 594.211L551.221 473.037C560.595 463.716 560.755 448.367 551.593 438.86C551.088 438.356 550.584 437.825 550.079 437.347Z" fill="#32A8FF"/>
</g>
<defs>
<clipPath id="clip0_1899_17">
<rect width="2830.84" height="600" fill="white"/>
</clipPath>
</defs>
</svg>
