<svg width="1551" height="600" viewBox="0 0 1551 600" fill="none" xmlns="http://www.w3.org/2000/svg">
<g clip-path="url(#clip0_1899_18)">
<path d="M338.456 472.502C319.265 452.864 287.725 452.567 268.087 471.758L170.343 567.568C163.797 573.965 163.946 582.296 166.178 587.801C168.409 593.305 174.063 599.256 183.287 599.405L355.119 600C368.36 600 379.369 589.289 379.518 576.048C379.518 575.304 379.518 574.56 379.518 573.965C379.815 536.177 364.789 499.43 338.456 472.502Z" fill="#5756CE"/>
<path d="M205.156 449.144C205.454 421.77 183.287 399.157 155.912 398.859L19.1904 397.52C9.96647 397.372 4.31311 403.322 1.93275 408.827C-0.447611 414.332 -0.596386 422.663 5.80084 429.06L126.902 550.905C136.274 560.278 151.598 560.426 161.119 551.202C161.566 550.756 162.161 550.161 162.607 549.715C189.386 523.531 204.859 486.784 205.156 449.144Z" fill="#5756CE"/>
<path d="M127.498 338.457C147.136 319.266 147.434 287.726 128.242 268.088L32.4324 170.344C26.0352 163.798 17.7039 163.947 12.1994 166.179C6.69477 168.41 0.743863 174.064 0.59509 183.288L0 355.269C0 368.51 10.7116 379.519 23.9524 379.667C24.6963 379.667 25.4401 379.667 26.0352 379.667C63.6747 379.816 100.57 364.79 127.498 338.457Z" fill="#5756CE"/>
<path d="M261.394 127.498C280.586 147.136 312.126 147.434 331.764 128.242L429.507 32.4324C436.053 26.0352 435.905 17.7039 433.673 12.1994C431.441 6.69477 425.788 0.743864 416.564 0.595091L244.732 0C231.491 0 220.482 10.7116 220.333 23.9524C220.333 24.6963 220.333 25.4401 220.333 26.0352C220.184 63.8234 235.062 100.57 261.394 127.498Z" fill="#5756CE"/>
<path d="M394.694 150.855C394.397 178.229 416.564 200.843 443.938 201.14L580.66 202.479C589.884 202.628 595.537 196.677 597.918 191.173C600.298 185.668 600.447 177.337 594.05 170.94L472.949 48.7973C463.576 39.4246 448.252 39.2759 438.731 48.4998C438.285 48.9461 437.69 49.5412 437.243 49.9875C410.613 76.469 395.141 113.067 394.694 150.855Z" fill="#5756CE"/>
<path d="M472.502 261.542C452.864 280.734 452.567 312.274 471.758 331.912L567.568 429.655C573.965 436.201 582.296 436.052 587.801 433.821C593.305 431.589 599.256 425.936 599.405 416.712L600 244.88C600 231.639 589.289 220.63 576.048 220.481C575.304 220.481 574.56 220.481 573.965 220.481C536.177 220.183 499.281 235.061 472.502 261.542Z" fill="#5756CE"/>
<path d="M449.142 394.694C421.768 394.397 399.155 416.564 398.857 443.938L397.518 580.66C397.37 589.884 403.32 595.537 408.825 597.918C414.33 600.298 422.661 600.447 429.058 594.05L550.903 472.949C560.276 463.576 560.424 448.253 551.2 438.731C550.754 438.285 550.159 437.69 549.713 437.243C523.38 410.613 486.782 395.141 449.142 394.694Z" fill="#5756CE"/>
<path d="M185.071 86.139V75.8737C185.071 50.8799 165.284 30.0517 140.29 29.7542C114.85 29.3078 94.0218 49.9872 94.0218 75.2786V86.2878C79.2933 91.9411 68.7305 106.223 68.7305 123.035V148.772C68.7305 170.493 86.2856 188.048 108.006 188.048H121.247C123.628 188.048 125.71 186.263 126.305 183.883L132.108 144.458C132.256 143.416 131.81 142.375 130.917 141.78C125.413 138.507 121.991 132.407 122.735 125.415C123.628 117.679 129.727 111.579 137.463 110.686C147.58 109.496 156.358 117.53 156.358 127.349C156.358 133.449 153.085 138.804 148.175 141.78C147.282 142.375 146.836 143.416 146.985 144.458L152.787 183.883C153.233 186.263 155.316 188.048 157.845 188.048H171.086C192.807 188.048 210.362 170.493 210.362 148.772V122.886C210.213 106.075 199.799 91.7923 185.071 86.139ZM174.954 83.7586C173.615 83.6098 172.276 83.6099 171.086 83.6099H108.155C106.816 83.6099 105.477 83.6098 104.287 83.7586V75.1298C104.287 55.343 120.503 39.4244 140.29 39.7219C159.631 40.0195 174.954 56.3845 174.954 75.7249V83.7586Z" fill="#5756CE"/>
<path d="M867.644 149.219C867.644 176.593 847.411 195.784 819.293 195.784C792.663 195.784 770.645 178.527 770.645 144.309V127.647C770.645 94.7679 786.563 70.9642 816.02 65.3109L859.611 59.9551V77.5103L820.186 82.271C802.333 85.8415 791.473 97.297 790.431 120.952C797.275 107.414 810.367 103.843 822.566 103.843C848.601 103.694 867.644 122.142 867.644 149.219ZM847.709 149.07C847.709 132.705 835.956 120.803 819.442 120.803C802.779 120.803 791.026 132.556 791.026 149.07C791.026 165.881 802.779 177.485 819.442 177.485C835.807 177.485 847.709 165.881 847.709 149.07Z" fill="#29374A"/>
<path d="M973.869 154.574C973.869 151.599 973.869 148.921 973.721 146.094C971.489 116.042 952.446 99.5283 926.56 99.5283C899.037 99.5283 879.25 120.356 879.25 147.879C879.25 176.741 899.929 195.933 928.047 195.933C948.876 195.933 965.389 183.734 971.043 168.112H951.256C946.644 174.212 939.057 178.973 928.196 178.973C912.873 178.973 900.971 169.005 899.781 154.574H973.869ZM899.781 139.102C900.822 125.861 911.98 116.191 926.56 116.191C941.734 116.191 952.297 126.01 952.892 139.102H899.781Z" fill="#29374A"/>
<path d="M980.712 176.593C987.853 176.295 995.291 172.278 995.291 157.55V101.611H1068.04V194.297H1047.81V119.91H1015.08V157.996C1015.08 183.734 999.903 195.338 980.414 194.892L980.712 176.593Z" fill="#29374A"/>
<path d="M1123.38 144.755L1167.72 101.611H1144.21L1119.66 125.415L1105.83 138.804V101.611H1105.53H1086.78H1085.59V194.297H1086.78H1105.53H1105.83V150.706L1119.51 166.03L1144.36 194.297H1167.87L1123.38 144.755Z" fill="#29374A"/>
<path d="M1248.5 101.462L1245.97 115.298C1238.09 105.628 1224.4 99.6768 1212.05 99.6768C1211.91 99.6768 1211.76 99.6768 1211.61 99.6768C1211.46 99.6768 1211.16 99.6768 1211.01 99.6768C1197.62 99.6768 1186.76 104.586 1178.88 112.471C1178.43 112.918 1178.13 113.215 1177.69 113.661C1177.54 113.959 1177.24 114.108 1177.09 114.405C1169.65 122.885 1165.34 134.49 1165.34 147.73V147.879V148.028C1165.34 161.269 1169.51 172.873 1177.09 181.353C1177.24 181.65 1177.54 181.799 1177.69 182.097C1177.99 182.543 1178.43 182.841 1178.88 183.287C1186.61 191.321 1197.62 196.081 1211.01 196.081C1211.16 196.081 1211.46 196.081 1211.61 196.081C1211.76 196.081 1211.91 196.081 1212.05 196.081C1224.4 196.081 1238.09 190.279 1245.97 180.46V194.296H1266.51V194.147V101.611V101.462H1248.5ZM1216.22 177.485C1198.66 177.485 1186.17 165.137 1186.17 147.879C1186.17 130.621 1198.66 118.273 1216.22 118.273C1233.48 118.273 1245.83 131.068 1245.83 147.879C1245.83 164.69 1233.48 177.485 1216.22 177.485Z" fill="#29374A"/>
<path d="M1284.06 101.462V101.611V235.804V235.952H1304.59V180.46C1312.47 190.131 1326.16 196.081 1338.51 196.081C1338.66 196.081 1338.81 196.081 1338.96 196.081C1339.1 196.081 1339.4 196.081 1339.55 196.081C1352.94 196.081 1363.8 191.172 1371.69 183.287C1372.13 182.841 1372.43 182.543 1372.88 182.097C1373.02 181.799 1373.32 181.65 1373.47 181.353C1380.91 172.873 1385.22 161.269 1385.22 148.028V147.879V147.73C1385.22 134.49 1381.06 122.885 1373.47 114.405C1373.32 114.108 1373.02 113.959 1372.88 113.661C1372.58 113.215 1372.13 112.918 1371.69 112.471C1363.95 104.437 1352.94 99.6768 1339.55 99.6768C1339.4 99.6768 1339.1 99.6768 1338.96 99.6768C1338.81 99.6768 1338.66 99.6768 1338.51 99.6768C1326.16 99.6768 1312.47 105.479 1304.59 115.298L1302.06 101.462H1284.06ZM1304.74 147.879C1304.74 131.068 1317.09 118.273 1334.34 118.273C1351.9 118.273 1364.4 130.621 1364.4 147.879C1364.4 165.137 1351.9 177.485 1334.34 177.485C1317.09 177.485 1304.74 164.69 1304.74 147.879Z" fill="#29374A"/>
<path d="M1538.01 136.425V194.297H1517.63V141.632C1517.63 124.82 1509 117.382 1497.55 117.382C1485.79 117.382 1476.87 125.267 1476.87 141.632V194.297H1456.49V141.632C1456.49 124.82 1447.71 117.382 1436.7 117.382C1424.65 117.382 1415.72 125.267 1415.72 141.632V194.297H1395.19V101.612H1413.19L1415.57 115.001C1420.93 105.48 1429.86 99.6777 1443.54 99.6777C1456.04 99.6777 1466.3 104.885 1471.81 115.001C1477.91 105.48 1488.03 99.6777 1503.05 99.6777C1523.88 99.6777 1538.01 113.662 1538.01 136.425Z" fill="#29374A"/>
<path d="M840.859 264.666H857.224V355.566H839.223V295.313L789.831 355.566H773.168V264.666H791.17V325.96L840.859 264.666Z" fill="#29374A"/>
<path d="M938.304 264.667H956.305V355.567H938.304V322.837H892.63V355.567H874.629V264.667H892.63V303.794H938.304V264.667Z" fill="#29374A"/>
<path d="M1501.85 355.418V280.585H1472.7V264.518H1550.5V280.585H1521.64V355.418H1501.85Z" fill="#29374A"/>
<path d="M1144.65 316.737C1144.65 313.911 1144.65 311.084 1144.51 308.555C1142.27 279.098 1123.68 263.03 1098.39 263.03C1071.46 263.03 1052.12 283.412 1052.12 310.34C1052.12 338.607 1072.35 357.352 1099.87 357.352C1120.26 357.352 1136.32 345.45 1141.98 330.127H1122.64C1118.17 336.226 1110.58 340.69 1100.02 340.69C1085 340.69 1073.39 330.871 1072.2 316.737H1144.65ZM1072.2 301.562C1073.24 288.619 1084.25 279.246 1098.53 279.246C1113.41 279.246 1123.83 288.917 1124.27 301.562H1072.2Z" fill="#29374A"/>
<path d="M1466.9 316.737C1466.9 313.911 1466.9 311.084 1466.75 308.555C1464.52 279.098 1445.92 263.03 1420.63 263.03C1393.7 263.03 1374.36 283.412 1374.36 310.34C1374.36 338.607 1394.59 357.352 1422.12 357.352C1442.5 357.352 1458.56 345.45 1464.22 330.127H1444.88C1440.41 336.226 1432.83 340.69 1422.26 340.69C1407.24 340.69 1395.63 330.871 1394.44 316.737H1466.9ZM1394.29 301.562C1395.34 288.619 1406.35 279.246 1420.63 279.246C1435.5 279.246 1445.92 288.917 1446.37 301.562H1394.29Z" fill="#29374A"/>
<path d="M1341.03 264.666H1359.04V355.566H1341.03V322.836H1295.36V355.566H1277.36V264.666H1295.36V303.793H1341.03V264.666Z" fill="#29374A"/>
<path d="M998.855 355.418V280.585H969.695V264.518H1047.5V280.585H1018.64V355.418H998.855Z" fill="#29374A"/>
<path d="M1161.91 263.625V263.774V395.438V395.586H1181.99V341.136C1189.73 350.657 1203.27 356.459 1215.32 356.459C1215.47 356.459 1215.62 356.459 1215.77 356.459C1215.91 356.459 1216.21 356.459 1216.36 356.459C1229.45 356.459 1240.16 351.699 1247.9 343.814C1248.2 343.516 1248.64 343.07 1248.94 342.772C1249.09 342.475 1249.39 342.326 1249.54 342.028C1256.98 333.697 1260.99 322.39 1260.99 309.298V309.15V309.001C1260.99 296.058 1256.83 284.602 1249.54 276.271C1249.39 275.973 1249.09 275.824 1248.94 275.527C1248.64 275.081 1248.2 274.783 1247.9 274.486C1240.31 266.601 1229.6 261.84 1216.36 261.84C1216.21 261.84 1215.91 261.84 1215.77 261.84C1215.62 261.84 1215.47 261.84 1215.32 261.84C1203.27 261.84 1189.88 267.493 1181.99 277.163L1179.61 263.625H1161.91ZM1182.29 309.15C1182.29 292.636 1194.34 280.139 1211.45 280.139C1228.56 280.139 1240.91 292.189 1240.91 309.15C1240.91 326.11 1228.71 338.16 1211.45 338.16C1194.34 338.309 1182.29 325.663 1182.29 309.15Z" fill="#29374A"/>
<path d="M856.778 427.424V518.324H836.396V443.491H793.698V518.324H773.316V427.424H856.778Z" fill="#29374A"/>
<path d="M1352.19 455.69C1373.61 455.69 1388.04 467.592 1388.04 487.081C1388.04 506.719 1373.46 518.472 1352.19 518.472H1314.85V427.572H1332.85V455.69H1352.19ZM1349.81 501.363C1360.82 501.363 1370.04 496.454 1370.04 487.081C1370.04 477.56 1360.97 472.502 1349.81 472.502H1332.7V501.363H1349.81Z" fill="#29374A"/>
<path d="M953.183 427.87L950.802 441.26C943.066 431.738 929.677 426.085 917.626 426.085C917.477 426.085 917.329 426.085 917.18 426.085C917.031 426.085 916.733 426.085 916.585 426.085C903.493 426.085 892.93 430.846 885.194 438.582C884.896 438.879 884.45 439.326 884.152 439.623C884.003 439.921 883.706 440.07 883.557 440.367C876.267 448.698 872.102 460.005 872.102 472.948V473.097V473.246C872.102 486.189 876.267 497.496 883.557 505.827C883.706 506.125 884.003 506.273 884.152 506.571C884.45 507.017 884.896 507.315 885.194 507.612C892.781 515.349 903.493 520.109 916.585 520.109C916.733 520.109 917.031 520.109 917.18 520.109C917.329 520.109 917.477 520.109 917.626 520.109C929.677 520.109 943.066 514.456 950.802 504.934V518.324H970.887V518.175V427.87V427.721H953.183V427.87ZM921.643 502.108C904.534 502.108 892.335 490.057 892.335 473.097C892.335 456.137 904.534 444.086 921.643 444.086C938.603 444.086 950.654 456.583 950.654 473.097C950.654 489.611 938.454 502.108 921.643 502.108Z" fill="#29374A"/>
<path d="M991.27 426.531V426.68V558.344V558.493H1011.35V504.042C1019.09 513.563 1032.63 519.365 1044.68 519.365C1044.83 519.365 1044.98 519.365 1045.13 519.365C1045.27 519.365 1045.57 519.365 1045.72 519.365C1058.81 519.365 1069.52 514.605 1077.26 506.72C1077.56 506.422 1078 505.976 1078.3 505.678C1078.45 505.381 1078.75 505.232 1078.9 504.935C1086.34 496.603 1090.35 485.297 1090.35 472.205V472.056V471.907C1090.35 458.964 1086.19 447.508 1078.9 439.177C1078.75 438.879 1078.45 438.731 1078.3 438.433C1078 437.987 1077.56 437.689 1077.26 437.392C1069.67 429.507 1058.96 424.746 1045.72 424.746C1045.57 424.746 1045.27 424.746 1045.13 424.746C1044.98 424.746 1044.83 424.746 1044.68 424.746C1032.63 424.746 1019.24 430.399 1011.35 440.07L1008.97 426.531H991.27ZM1011.5 472.056C1011.5 455.542 1023.55 443.045 1040.66 443.045C1057.77 443.045 1070.12 455.096 1070.12 472.056C1070.12 489.016 1057.92 501.066 1040.66 501.066C1023.7 501.215 1011.5 488.57 1011.5 472.056Z" fill="#29374A"/>
<path d="M1210.56 501.662C1217.7 501.364 1225.14 497.347 1225.14 482.768V427.275H1297.29V519.217H1277.21V445.426H1244.78V483.214C1244.78 508.654 1229.75 520.258 1210.41 519.812L1210.56 501.662Z" fill="#29374A"/>
<path d="M1151.2 425.49C1123.23 425.49 1102.55 445.575 1102.55 472.8C1102.55 500.025 1123.23 520.11 1151.2 520.11C1179.32 520.11 1199.85 500.174 1199.85 472.8C1199.85 445.723 1179.32 425.49 1151.2 425.49ZM1151.2 501.959C1134.69 501.959 1122.49 489.611 1122.49 472.8C1122.49 456.137 1134.69 443.64 1151.2 443.64C1167.86 443.64 1179.91 455.989 1179.91 472.8C1179.91 489.611 1167.86 501.959 1151.2 501.959Z" fill="#29374A"/>
</g>
<defs>
<clipPath id="clip0_1899_18">
<rect width="1550.5" height="600" fill="white"/>
</clipPath>
</defs>
</svg>
