<svg width="1773" height="600" viewBox="0 0 1773 600" fill="none" xmlns="http://www.w3.org/2000/svg">
<g clip-path="url(#clip0_1899_21)">
<path d="M758.769 282.772H879.137C870.37 255.561 847.78 238.044 818.729 238.044C791.056 238.044 767.529 255.561 758.769 282.772ZM915.105 227.426C939.09 256.488 947.857 290.615 941.392 330.277H757.845C766.612 359.325 791.056 378.234 822.881 378.234C850.085 378.234 869.463 367.172 881.911 345.037L933.094 368.092C911.417 406.831 870.838 431.729 821.034 431.729C784.601 431.729 754.616 419.74 730.179 396.223C705.732 372.703 693.746 343.187 693.746 308.132C693.746 273.088 705.732 243.575 729.717 220.055C753.689 196.535 783.223 184.545 818.729 184.545C858.846 184.545 890.668 198.837 915.105 227.426Z" fill="#154781"/>
<path d="M1100.04 375.007C1118.03 375.007 1132.78 368.553 1144.77 355.64C1156.75 343.189 1162.76 327.05 1162.76 308.138C1162.76 289.229 1156.75 273.09 1144.77 260.639C1132.78 248.181 1118.03 241.726 1100.04 241.726C1082.05 241.726 1067.28 248.181 1055.3 260.639C1043.31 273.552 1037.31 289.229 1037.31 308.138C1037.31 327.05 1043.31 343.189 1055.3 355.64C1067.28 368.553 1082.05 375.007 1100.04 375.007ZM1194.57 220.047C1216.25 243.577 1227.31 273.09 1227.31 308.138C1227.31 343.189 1216.25 372.702 1194.57 396.215C1172.9 419.746 1145.69 431.731 1112.95 431.731C1082.51 431.731 1057.14 420.669 1037.31 398.989V519.357H975.051V189.155H1037.31V217.283C1057.14 195.61 1082.51 184.541 1112.95 184.541C1145.69 184.541 1172.9 196.533 1194.57 220.047Z" fill="#154781"/>
<path d="M1320.92 336.271L1434.37 189.154H1494.79V427.126H1432.52V280.009L1319.08 427.126H1258.66V189.154H1320.92V336.271Z" fill="#154781"/>
<path d="M1606.85 427.124H1544.58V189.155H1772.42V427.124H1710.14V244.039H1606.85V427.124Z" fill="#154781"/>
<path d="M215.637 0.00140381L359.047 175.274C359.047 175.274 409.418 113.759 409.496 113.609C422.103 98.0716 421.669 76.0694 409.299 60.9665L371.96 15.3318C364.038 5.64465 352.178 0.00140381 339.659 0.00140381H215.637ZM0 0.00140381L215.304 263.212L287.226 175.386L143.756 0.00140381H0Z" fill="url(#paint0_linear_1899_21)"/>
<path d="M227.406 600.001H351.411C363.93 600.001 375.787 594.382 383.708 584.718L589.156 333.694C601.746 318.323 601.746 296.191 589.156 280.827L538.886 219.39L227.406 600.001Z" fill="url(#paint1_linear_1899_21)"/>
<path d="M409.498 113.608C409.42 113.758 359.049 175.273 359.049 175.273L359.022 175.297L11.4414 600.001H155.299L481.23 201.774C493.82 186.396 493.82 164.272 481.23 148.897L409.301 60.9658C421.671 76.0687 422.105 98.071 409.498 113.608Z" fill="url(#paint2_linear_1899_21)"/>
</g>
<defs>
<linearGradient id="paint0_linear_1899_21" x1="91.8035" y1="9.35582" x2="380.891" y2="305.723" gradientUnits="userSpaceOnUse">
<stop stop-color="#FAAB65"/>
<stop offset="0.947984" stop-color="#F05345"/>
<stop offset="1" stop-color="#F05345"/>
</linearGradient>
<linearGradient id="paint1_linear_1899_21" x1="541.126" y1="242.647" x2="255.028" y2="620.296" gradientUnits="userSpaceOnUse">
<stop stop-color="#FAAB65"/>
<stop offset="0.947984" stop-color="#F05345"/>
<stop offset="1" stop-color="#F05345"/>
</linearGradient>
<linearGradient id="paint2_linear_1899_21" x1="439.484" y1="83.8357" x2="34.9559" y2="617.813" gradientUnits="userSpaceOnUse">
<stop stop-color="#FAAB65"/>
<stop offset="0.947984" stop-color="#F05345"/>
<stop offset="1" stop-color="#F05345"/>
</linearGradient>
<clipPath id="clip0_1899_21">
<rect width="1772.42" height="600" fill="white"/>
</clipPath>
</defs>
</svg>
