<svg width="1971" height="600" viewBox="0 0 1971 600" fill="none" xmlns="http://www.w3.org/2000/svg">
<g clip-path="url(#clip0_1899_16)">
<path d="M170.474 408.396C160.17 401.878 149.415 396.813 138.199 393.199C126.984 389.599 115.252 387.8 103.006 387.8C94.9969 387.8 87.6701 388.635 81.0355 390.294C74.3944 391.941 68.7005 394.345 63.9507 397.509C59.2074 400.659 55.5109 404.425 52.8809 408.823C50.2477 413.232 48.9294 418.194 48.9294 423.682C48.9294 428.711 50.0787 433 52.3675 436.551C54.6563 440.102 57.9488 443.106 62.2415 445.567C66.5276 448.031 71.7677 450.052 77.9451 451.658C84.1292 453.265 91.1082 454.643 98.8855 455.785L115.54 458.011C125.265 459.386 134.768 461.509 144.036 464.374C153.303 467.226 161.571 471.227 168.841 476.385C176.105 481.525 181.948 488.007 186.35 495.781C190.762 503.559 192.965 513.005 192.965 524.105C192.965 536.354 190.388 547.168 185.237 556.552C180.08 565.936 173.101 573.833 164.294 580.232C155.473 586.651 145.261 591.52 133.651 594.836C122.029 598.151 109.7 599.811 96.653 599.811C88.5213 599.811 80.0882 599.129 71.3338 597.741C62.5794 596.379 53.9343 594.349 45.4084 591.663C36.8858 588.963 28.7276 585.618 20.9404 581.62C13.1565 577.609 6.17745 572.918 0 567.529L21.1159 536.639C25.2431 540.405 30.185 543.912 35.9683 547.115C41.7417 550.318 47.9489 553.117 54.5901 555.522C61.2313 557.914 68.1209 559.792 75.2754 561.103C82.4267 562.415 89.5018 563.084 96.4742 563.084C104.377 563.084 111.727 562.286 118.537 560.676C125.351 559.073 131.273 556.718 136.305 553.634C141.336 550.547 145.317 546.794 148.236 542.385C151.16 537.99 152.618 533.042 152.618 527.55C152.618 518.153 148.004 511.005 138.799 506.083C129.581 501.161 116.166 497.497 98.5411 495.092L79.8298 492.525C70.8999 491.26 62.172 489.203 53.6494 486.338C45.1268 483.503 37.5152 479.462 30.8144 474.245C24.1169 469.038 18.7377 462.519 14.6801 454.676C10.6093 446.849 8.57887 437.323 8.57887 426.097C8.57887 414.077 11.073 403.408 16.0547 394.07C21.0265 384.753 27.8101 376.909 36.3923 370.556C44.9745 364.193 55.0207 359.361 66.521 356.055C78.0213 352.726 90.2934 351.07 103.347 351.07C120.859 351.07 136.679 353.382 150.806 358.023C164.943 362.653 178.079 368.98 190.216 376.986L170.474 408.396ZM301.459 426.769C312.897 426.769 323.4 428.866 332.956 433.033C342.509 437.223 350.69 443.109 357.504 450.724C364.314 458.336 369.633 467.435 373.472 478.014C377.298 488.607 379.219 500.306 379.219 513.128C379.219 515.41 379.159 517.702 379.05 519.991C378.928 522.277 378.762 524.453 378.53 526.51H256.988C258.131 533.952 260.254 540.302 263.338 545.562C266.422 550.832 270.152 555.154 274.497 558.533C278.85 561.905 283.709 564.399 289.098 565.989C294.47 567.595 300.075 568.394 305.915 568.394C314.162 568.394 322.42 566.89 330.72 563.859C339.024 560.822 346.603 556.556 353.469 551.067L371.319 576.638C361.253 585.227 350.584 591.242 339.309 594.66C328.034 598.105 316.163 599.818 303.685 599.818C291.324 599.818 279.989 597.747 269.694 593.647C259.396 589.523 250.526 583.683 243.087 576.138C235.644 568.579 229.864 559.477 225.75 548.831C221.63 538.186 219.566 526.347 219.566 513.297C219.566 500.478 221.567 488.743 225.575 478.11C229.579 467.464 235.19 458.339 242.394 450.727C249.609 443.112 258.214 437.226 268.237 433.036C278.247 428.866 289.323 426.769 301.459 426.769ZM300.764 458.7C294.355 458.7 288.667 459.664 283.686 461.608C278.711 463.576 274.411 466.338 270.811 469.952C267.21 473.552 264.259 477.845 261.973 482.82C259.678 487.795 258.078 493.257 257.164 499.213H342.482C340.535 486.394 335.96 476.431 328.746 469.346C321.539 462.254 312.211 458.7 300.764 458.7ZM491.49 426.769C503.851 426.769 515.352 428.969 525.991 433.378C536.643 437.786 545.623 444.341 552.953 453.036L529.939 477.577C524.109 472.088 518.041 467.882 511.748 464.964C505.454 462.046 498.359 460.595 490.463 460.595C483.593 460.595 477.177 461.88 471.232 464.45C465.279 467.021 460.129 470.634 455.783 475.262C451.431 479.892 448.026 485.457 445.565 491.913C443.11 498.391 441.875 505.513 441.875 513.29C441.875 521.067 443.11 528.206 445.565 534.668C448.026 541.137 451.431 546.688 455.783 551.319C460.129 555.943 465.276 559.543 471.232 562.13C477.177 564.701 483.593 565.986 490.463 565.986C498.356 565.986 505.736 564.356 512.602 561.1C519.472 557.847 525.54 553.743 530.8 548.821L552.953 573.544C545.397 582.236 536.355 588.794 525.825 593.203C515.295 597.612 503.855 599.811 491.493 599.811C478.443 599.811 466.598 597.612 455.952 593.203C445.316 588.794 436.214 582.726 428.659 575.012C421.107 567.284 415.27 558.159 411.15 547.616C407.029 537.099 404.966 525.658 404.966 513.29C404.966 500.939 407.029 489.481 411.15 478.952C415.27 468.422 421.107 459.293 428.659 451.582C436.211 443.854 445.313 437.786 455.952 433.378C466.594 428.969 478.439 426.769 491.49 426.769ZM736.971 525.824C736.971 538.861 734.798 550.083 730.453 559.467C726.1 568.851 720.373 576.529 713.282 582.478C706.183 588.433 698.062 592.802 688.906 595.604C679.748 598.41 670.361 599.811 660.745 599.811C651.136 599.811 641.752 598.41 632.597 595.604C623.435 592.802 615.287 588.433 608.129 582.478C600.975 576.529 595.254 568.851 590.965 559.467C586.665 550.083 584.526 538.858 584.526 525.824V431.066H620.573V522.561C620.573 530.451 621.61 537.192 623.661 542.73C625.724 548.285 628.56 552.773 632.163 556.214C635.77 559.636 640.03 562.13 644.949 563.674C649.874 565.217 655.137 565.986 660.742 565.986C666.353 565.986 671.613 565.217 676.545 563.674C681.46 562.13 685.723 559.636 689.33 556.214C692.937 552.773 695.769 548.281 697.826 542.73C699.883 537.192 700.92 530.451 700.92 522.561V431.066H736.968V525.824H736.971ZM867.95 426.769C873.445 426.769 878.387 427.14 882.799 427.886C887.207 428.621 891.47 429.8 895.591 431.397L887.009 466.944C883.229 464.987 878.821 463.513 873.793 462.469C868.755 461.439 864.054 460.926 859.709 460.926C853.988 460.926 848.732 461.903 843.922 463.847C839.113 465.798 834.986 468.654 831.561 472.433C828.122 476.212 825.436 480.843 823.485 486.328C821.538 491.833 820.567 498.067 820.567 505.049V595.515H784.685V431.066H820.226V449.601C825.714 441.695 832.528 435.921 840.653 432.261C848.781 428.595 857.884 426.769 867.95 426.769ZM988.475 426.769C999.919 426.769 1010.42 428.866 1019.97 433.033C1029.54 437.223 1037.72 443.109 1044.53 450.724C1051.33 458.336 1056.65 467.435 1060.49 478.014C1064.31 488.607 1066.23 500.306 1066.23 513.128C1066.23 515.41 1066.17 517.702 1066.07 519.991C1065.94 522.277 1065.78 524.453 1065.55 526.51H944.003C945.146 533.952 947.263 540.302 950.353 545.562C953.44 550.832 957.167 555.154 961.509 558.533C965.861 561.905 970.714 564.399 976.103 565.989C981.476 567.595 987.093 568.394 992.916 568.394C1001.17 568.394 1009.44 566.89 1017.73 563.859C1026.04 560.822 1033.61 556.556 1040.48 551.067L1058.33 576.638C1048.26 585.227 1037.59 591.242 1026.32 594.66C1015.04 598.105 1003.18 599.818 990.694 599.818C978.339 599.818 967.001 597.747 956.7 593.647C946.402 589.523 937.531 583.683 930.095 576.138C922.649 568.579 916.872 559.477 912.759 548.831C908.631 538.186 906.574 526.347 906.574 513.297C906.574 500.478 908.575 488.743 912.583 478.11C916.588 467.464 922.192 458.339 929.406 450.727C936.617 443.112 945.226 437.226 955.239 433.036C965.262 428.866 976.338 426.769 988.475 426.769ZM987.779 458.7C981.376 458.7 975.682 459.664 970.697 461.608C965.726 463.576 961.426 466.338 957.819 469.952C954.219 473.552 951.267 477.845 948.985 482.82C946.693 487.795 945.09 493.257 944.179 499.213H1029.51C1027.55 486.394 1022.98 476.431 1015.77 469.346C1008.55 462.254 999.236 458.7 987.779 458.7ZM1221.08 350.712C1231.72 350.712 1242.03 351.855 1251.98 354.144C1261.95 356.446 1271.21 359.748 1279.79 364.107C1288.37 368.466 1296.17 373.749 1303.14 380C1310.12 386.234 1315.97 393.229 1320.65 401.02L1288.21 422.642C1280.87 411.881 1271.47 403.421 1259.97 397.24C1248.45 391.069 1235.51 387.982 1221.08 387.982C1208.83 387.982 1197.5 390.092 1187.09 394.319C1176.67 398.562 1167.69 404.514 1160.13 412.179C1152.58 419.84 1146.66 429.062 1142.38 439.82C1138.08 450.582 1135.93 462.42 1135.93 475.354C1135.93 488.289 1138.08 500.14 1142.38 510.892C1146.66 521.654 1152.58 530.855 1160.13 538.533C1167.69 546.208 1176.67 552.147 1187.09 556.377C1197.5 560.62 1208.83 562.73 1221.08 562.73C1235.38 562.73 1248.23 559.709 1259.61 553.641C1271.01 547.573 1280.48 539.113 1288.04 528.235L1319.64 551.415C1314.48 558.96 1308.45 565.711 1301.52 571.663C1294.6 577.615 1286.93 582.706 1278.51 586.946C1270.09 591.176 1261.05 594.415 1251.38 596.644C1241.7 598.88 1231.61 600 1221.08 600C1202.66 600 1185.72 596.876 1170.28 590.629C1154.83 584.402 1141.54 575.724 1130.45 564.631C1119.34 553.521 1110.71 540.372 1104.52 525.148C1098.35 509.912 1095.25 493.334 1095.25 475.358C1095.25 457.382 1098.35 440.8 1104.52 425.567C1110.71 410.344 1119.34 397.184 1130.45 386.088C1141.55 374.992 1154.83 366.327 1170.28 360.093C1185.71 353.836 1202.65 350.712 1221.08 350.712ZM1433.1 426.769C1445.8 426.769 1457.55 428.969 1468.36 433.378C1479.19 437.786 1488.54 443.854 1496.43 451.582C1504.34 459.293 1510.51 468.422 1514.98 478.952C1519.44 489.481 1521.67 500.939 1521.67 513.29C1521.67 525.658 1519.44 537.099 1514.98 547.616C1510.51 558.159 1504.34 567.284 1496.43 575.012C1488.54 582.726 1479.19 588.794 1468.36 593.203C1457.55 597.612 1445.8 599.811 1433.1 599.811C1420.39 599.811 1408.62 597.612 1397.81 593.203C1386.99 588.794 1377.67 582.726 1369.84 575.012C1361.98 567.284 1355.85 558.159 1351.38 547.616C1346.92 537.099 1344.69 525.658 1344.69 513.29C1344.69 500.939 1346.92 489.481 1351.38 478.952C1355.86 468.422 1361.98 459.293 1369.84 451.582C1377.67 443.854 1386.99 437.786 1397.81 433.378C1408.62 428.969 1420.39 426.769 1433.1 426.769ZM1433.1 460.595C1425.76 460.595 1418.95 461.88 1412.66 464.45C1406.37 467.021 1400.92 470.634 1396.36 475.262C1391.77 479.892 1388.17 485.457 1385.53 491.913C1382.91 498.391 1381.59 505.513 1381.59 513.29C1381.59 521.067 1382.91 528.206 1385.53 534.668C1388.17 541.137 1391.77 546.688 1396.36 551.319C1400.92 555.943 1406.37 559.543 1412.66 562.13C1418.95 564.701 1425.76 565.986 1433.1 565.986C1440.42 565.986 1447.22 564.701 1453.52 562.13C1459.8 559.547 1465.28 555.946 1469.91 551.319C1474.55 546.688 1478.17 541.137 1480.82 534.668C1483.45 528.206 1484.77 521.067 1484.77 513.29C1484.77 505.513 1483.45 498.391 1480.82 491.913C1478.17 485.457 1474.55 479.892 1469.91 475.262C1465.28 470.638 1459.8 467.024 1453.52 464.45C1447.22 461.877 1440.42 460.595 1433.1 460.595ZM1629.66 426.769C1641.45 426.769 1651.58 428.969 1660.04 433.378C1668.51 437.786 1675.61 443.659 1681.34 450.976V348.308H1717.22V595.515H1681.34V575.783C1675.61 583.1 1668.51 588.947 1660.04 593.292C1651.58 597.641 1641.45 599.811 1629.66 599.811C1618.1 599.811 1607.34 597.678 1597.39 593.372C1587.43 589.076 1578.73 583.1 1571.29 575.426C1563.85 567.774 1558.01 558.649 1553.78 548.053C1549.54 537.47 1547.43 525.877 1547.43 513.29C1547.43 500.703 1549.54 489.107 1553.78 478.528C1558.01 467.948 1563.85 458.806 1571.29 451.141C1578.73 443.48 1587.43 437.501 1597.39 433.209C1607.34 428.916 1618.1 426.769 1629.66 426.769ZM1633.95 460.595C1626.16 460.595 1619.22 461.996 1613.09 464.785C1606.96 467.6 1601.8 471.38 1597.56 476.123C1593.32 480.869 1590.06 486.447 1587.77 492.863C1585.48 499.279 1584.34 506.079 1584.34 513.294C1584.34 520.494 1585.48 527.308 1587.77 533.724C1590.06 540.14 1593.32 545.718 1597.56 550.464C1601.79 555.207 1606.96 558.987 1613.09 561.802C1619.22 564.604 1626.16 565.992 1633.95 565.992C1641.38 565.992 1648.13 564.657 1654.21 561.955C1660.28 559.278 1665.49 555.578 1669.83 550.885C1674.18 546.208 1677.55 540.653 1679.95 534.241C1682.36 527.835 1683.56 520.855 1683.56 513.297C1683.56 505.751 1682.36 498.756 1679.95 492.353C1677.55 485.937 1674.18 480.402 1669.83 475.709C1665.49 471.015 1660.28 467.325 1654.21 464.626C1648.13 461.943 1641.38 460.595 1633.95 460.595ZM1836.7 426.769C1848.15 426.769 1858.64 428.866 1868.19 433.033C1877.74 437.223 1885.94 443.109 1892.74 450.724C1899.56 458.336 1904.87 467.435 1908.71 478.014C1912.54 488.607 1914.46 500.306 1914.46 513.128C1914.46 515.41 1914.39 517.702 1914.29 519.991C1914.17 522.277 1913.99 524.453 1913.78 526.51H1792.23C1793.37 533.952 1795.49 540.302 1798.59 545.562C1801.67 550.832 1805.39 555.154 1809.75 558.533C1814.09 561.905 1818.95 564.399 1824.34 565.989C1829.71 567.595 1835.33 568.394 1841.15 568.394C1849.41 568.394 1857.67 566.89 1865.96 563.859C1874.26 560.822 1881.84 556.556 1888.72 551.067L1906.56 576.638C1896.48 585.227 1885.81 591.242 1874.54 594.66C1863.28 598.105 1851.41 599.818 1838.93 599.818C1826.57 599.818 1815.23 597.747 1804.93 593.647C1794.64 589.523 1785.75 583.683 1778.32 576.138C1770.89 568.579 1765.11 559.477 1760.99 548.831C1756.87 538.186 1754.81 526.347 1754.81 513.297C1754.81 500.478 1756.8 488.743 1760.81 478.11C1764.83 467.464 1770.43 458.339 1777.64 450.727C1784.86 443.112 1793.46 437.226 1803.47 433.036C1813.5 428.866 1824.57 426.769 1836.7 426.769ZM1931.6 595.515V587.251H1934.94V585.555H1926.44V587.251H1929.77V595.515H1931.6ZM1948.09 595.515V585.538H1945.5L1942.5 592.401L1939.49 585.538H1936.9V595.515H1938.73V587.993L1941.54 594.475H1943.45L1946.26 587.969V595.512H1948.09V595.515ZM1836.01 458.7C1829.59 458.7 1823.91 459.664 1818.93 461.608C1813.95 463.576 1809.66 466.338 1806.04 469.952C1802.44 473.552 1799.5 477.845 1797.21 482.82C1794.91 487.795 1793.31 493.257 1792.4 499.213H1877.72C1875.77 486.394 1871.21 476.431 1864 469.346C1856.79 462.254 1847.45 458.7 1836.01 458.7Z" fill="#F79E1B"/>
<path d="M288.604 256.412H248.359V51.2877L175.535 232.014H133.157L60.3265 53.242V256.412H20.082V7.12808H81.8764L154.35 185.191L226.82 7.12808H288.604V256.412ZM500.492 256.412H463.275V235.939C457.339 243.537 449.983 249.585 441.199 254.097C432.414 258.615 421.901 260.871 409.682 260.871C397.685 260.871 386.536 258.641 376.204 254.193C365.873 249.738 356.851 243.537 349.136 235.578C341.422 227.635 335.367 218.165 330.978 207.178C326.58 196.194 324.39 184.177 324.39 171.124C324.39 158.06 326.583 146.04 330.978 135.063C335.37 124.089 341.425 114.609 349.136 106.663C356.851 98.7034 365.873 92.5094 376.204 88.0477C386.536 83.5993 397.685 81.3668 409.682 81.3668C421.901 81.3668 432.411 83.6622 441.199 88.2299C449.979 92.8008 457.339 98.8822 463.275 106.474V85.8284H500.492V256.412ZM414.13 116.454C406.055 116.454 398.844 117.911 392.501 120.813C386.151 123.731 380.775 127.653 376.383 132.568C371.988 137.507 368.606 143.277 366.234 149.931C363.856 156.586 362.674 163.641 362.674 171.124C362.674 178.599 363.853 185.665 366.234 192.309C368.606 198.96 371.988 204.753 376.383 209.672C380.775 214.601 386.148 218.509 392.501 221.431C398.844 224.329 406.055 225.787 414.13 225.787C421.851 225.787 428.85 224.392 435.144 221.603C441.437 218.814 446.836 214.988 451.351 210.116C455.862 205.25 459.36 199.497 461.861 192.842C464.348 186.195 465.594 178.957 465.594 171.124C465.594 163.28 464.348 156.043 461.861 149.395C459.36 142.74 455.862 136.987 451.351 132.115C446.839 127.262 441.437 123.423 435.144 120.634C428.854 117.852 421.851 116.454 414.13 116.454ZM671.427 128.56C668.823 127.03 665.617 125.387 661.818 123.668C658.022 121.952 653.802 120.382 649.175 118.951C644.541 117.531 639.649 116.348 634.485 115.391C629.318 114.44 624.064 113.97 618.725 113.97C608.516 113.97 600.59 115.835 594.952 119.578C589.315 123.31 586.493 128.216 586.493 134.271C586.493 137.235 587.238 139.723 588.715 141.74C590.209 143.771 592.193 145.43 594.681 146.735C597.182 148.047 600.143 149.077 603.584 149.852C607.029 150.624 610.712 151.303 614.628 151.889L632.252 154.569C650.891 157.295 665.428 162.724 675.879 170.859C686.332 178.99 691.552 190.361 691.552 204.959C691.552 213.147 689.797 220.662 686.299 227.479C682.795 234.306 677.75 240.188 671.162 245.107C664.574 250.036 656.442 253.862 646.767 256.601C637.095 259.327 626.138 260.682 613.915 260.682C609.523 260.682 604.416 260.423 598.603 259.89C592.786 259.35 586.612 258.284 580.09 256.69C573.555 255.084 566.907 252.851 560.143 250.009C553.376 247.164 546.901 243.408 540.733 238.794L558.004 210.832C561.087 213.21 564.443 215.426 568.063 217.502C571.69 219.586 575.777 221.431 580.348 223.024C584.919 224.631 589.971 225.912 595.486 226.856C601.007 227.807 607.271 228.277 614.276 228.277C627.095 228.277 636.77 226.413 643.299 222.673C649.824 218.94 653.097 213.862 653.097 207.446C653.097 202.587 650.718 198.583 645.969 195.426C641.215 192.289 633.743 190 623.534 188.579L605.727 186.261C586.731 183.647 572.339 178.109 562.548 169.61C552.754 161.13 547.855 150.001 547.855 136.222C547.855 127.789 549.488 120.19 552.754 113.437C556.013 106.669 560.703 100.939 566.818 96.249C572.932 91.562 580.325 87.9417 588.99 85.3912C597.655 82.8341 607.453 81.5655 618.374 81.5655C631.789 81.5655 644.425 83.1355 656.306 86.2822C668.174 89.419 678.562 93.8409 687.462 99.5447L671.427 128.56ZM848.069 119.657H782.717V193.919C782.717 199.606 783.436 204.479 784.85 208.516C786.278 212.544 788.212 215.85 790.643 218.403C793.075 220.957 795.926 222.825 799.186 224.008C802.452 225.19 805.979 225.787 809.785 225.787C815.602 225.787 821.504 224.67 827.503 222.401C833.501 220.146 839.046 217.42 844.157 214.217L858.927 243.948C852.04 248.575 844.296 252.563 835.697 255.879C827.082 259.204 817.384 260.874 806.576 260.874C787.228 260.874 772.177 255.508 761.439 244.759C750.69 234.011 745.324 217.31 745.324 194.628V119.657H711.314V85.8318H745.324V34.1896H782.717V85.8318H848.069V119.657ZM962.559 81.3701C974.427 81.3701 985.331 83.543 995.238 87.8755C1005.15 92.2079 1013.64 98.3225 1020.71 106.222C1027.76 114.116 1033.28 123.559 1037.26 134.526C1041.24 145.513 1043.23 157.652 1043.23 170.948C1043.23 173.326 1043.17 175.705 1043.05 178.07C1042.93 180.448 1042.74 182.697 1042.52 184.83H916.445C917.627 192.551 919.826 199.142 923.033 204.604C926.232 210.06 930.098 214.541 934.603 218.046C939.114 221.544 944.162 224.13 949.74 225.79C955.321 227.463 961.138 228.277 967.189 228.277C975.735 228.277 984.31 226.711 992.926 223.561C1001.54 220.424 1009.4 216.002 1016.52 210.302L1035.04 236.823C1024.59 245.733 1013.52 251.967 1001.83 255.528C990.127 259.088 977.812 260.874 964.884 260.874C952.059 260.874 940.303 258.727 929.624 254.461C918.939 250.185 909.737 244.137 902.023 236.3C894.309 228.456 888.31 219.029 884.037 207.98C879.768 196.95 877.628 184.658 877.628 171.13C877.628 157.828 879.705 145.662 883.855 134.619C888.012 123.589 893.832 114.119 901.307 106.226C908.79 98.3258 917.72 92.2146 928.111 87.8788C938.491 83.543 949.982 81.3701 962.559 81.3701ZM961.853 114.5C955.202 114.5 949.299 115.51 944.129 117.527C938.968 119.548 934.513 122.419 930.78 126.159C927.037 129.905 923.977 134.347 921.605 139.514C919.227 144.678 917.574 150.352 916.617 156.52H1005.13C1003.11 143.231 998.365 132.896 990.879 125.536C983.4 118.18 973.721 114.5 961.853 114.5ZM1172.14 81.3701C1177.85 81.3701 1182.98 81.7609 1187.54 82.536C1192.12 83.3078 1196.54 84.5267 1200.81 86.1795L1191.91 123.042C1187.99 121.025 1183.42 119.481 1178.19 118.415C1172.97 117.355 1168.1 116.822 1163.6 116.822C1157.66 116.822 1152.2 117.825 1147.21 119.846C1142.22 121.863 1137.95 124.824 1134.39 128.749C1130.83 132.664 1128.04 137.471 1126.02 143.171C1124.01 148.862 1123 155.34 1123 162.578V256.415H1085.79V85.8318H1122.65V105.06C1128.34 96.8717 1135.41 90.8797 1143.83 87.0805C1152.25 83.2813 1161.69 81.3701 1172.14 81.3701ZM1299.45 81.3701C1312.28 81.3701 1324.22 83.6655 1335.25 88.2332C1346.29 92.8042 1355.6 99.6076 1363.2 108.624L1339.33 134.089C1333.28 128.382 1327 124.023 1320.49 120.995C1313.93 117.974 1306.58 116.447 1298.39 116.447C1291.28 116.447 1284.63 117.786 1278.45 120.459C1272.28 123.128 1266.93 126.861 1262.41 131.684C1257.92 136.493 1254.38 142.247 1251.84 148.944C1249.27 155.652 1248.01 163.038 1248.01 171.12C1248.01 179.196 1249.27 186.579 1251.84 193.29C1254.38 199.987 1257.92 205.747 1262.41 210.563C1266.93 215.369 1272.28 219.112 1278.45 221.772C1284.63 224.455 1291.28 225.783 1298.39 225.783C1306.58 225.783 1314.23 224.087 1321.35 220.712C1328.47 217.327 1334.79 213.084 1340.23 207.973L1363.2 233.623C1355.38 242.65 1345.98 249.433 1335.08 254.004C1324.14 258.575 1312.29 260.867 1299.46 260.867C1285.93 260.867 1273.64 258.575 1262.61 254.004C1251.57 249.433 1242.12 243.15 1234.29 235.137C1226.46 227.115 1220.4 217.652 1216.14 206.731C1211.86 195.804 1209.72 183.939 1209.72 171.124C1209.72 158.298 1211.86 146.43 1216.14 135.503C1220.4 124.586 1226.46 115.122 1234.29 107.1C1242.12 99.0909 1251.57 92.8042 1262.61 88.2332C1273.64 83.6655 1285.93 81.3701 1299.45 81.3701ZM1561.58 256.412H1524.36V235.939C1518.42 243.537 1511.06 249.585 1502.29 254.097C1493.49 258.615 1482.99 260.871 1470.76 260.871C1458.77 260.871 1447.61 258.641 1437.28 254.193C1426.96 249.738 1417.93 243.537 1410.22 235.578C1402.5 227.635 1396.45 218.165 1392.06 207.178C1387.67 196.194 1385.46 184.177 1385.46 171.124C1385.46 158.06 1387.67 146.04 1392.06 135.063C1396.45 124.089 1402.5 114.609 1410.22 106.663C1417.93 98.7034 1426.96 92.5094 1437.28 88.0477C1447.61 83.5993 1458.77 81.3668 1470.76 81.3668C1482.98 81.3668 1493.49 83.6622 1502.29 88.2299C1511.06 92.8008 1518.42 98.8822 1524.36 106.474V85.8284H1561.58V256.412ZM1475.21 116.454C1467.14 116.454 1459.92 117.911 1453.57 120.813C1447.22 123.731 1441.86 127.653 1437.47 132.568C1433.08 137.507 1429.68 143.277 1427.31 149.931C1424.94 156.586 1423.75 163.641 1423.75 171.124C1423.75 178.599 1424.94 185.665 1427.31 192.309C1429.69 198.96 1433.08 204.753 1437.47 209.672C1441.86 214.601 1447.22 218.509 1453.57 221.431C1459.92 224.329 1467.14 225.787 1475.21 225.787C1482.92 225.787 1489.93 224.392 1496.23 221.603C1502.51 218.814 1507.91 214.988 1512.43 210.116C1516.94 205.25 1520.44 199.497 1522.93 192.842C1525.44 186.195 1526.67 178.957 1526.67 171.124C1526.67 163.28 1525.44 156.043 1522.93 149.395C1520.44 142.74 1516.94 136.987 1512.43 132.115C1507.92 127.262 1502.52 123.423 1496.23 120.634C1489.93 117.852 1482.92 116.454 1475.21 116.454ZM1702.77 81.3701C1708.48 81.3701 1713.61 81.7609 1718.17 82.536C1722.75 83.3078 1727.17 84.5267 1731.44 86.1795L1722.53 123.042C1718.63 121.025 1714.06 119.481 1708.84 118.415C1703.61 117.355 1698.73 116.822 1694.22 116.822C1688.28 116.822 1682.84 117.825 1677.86 119.846C1672.86 121.863 1668.59 124.824 1665.03 128.749C1661.47 132.664 1658.68 137.471 1656.66 143.171C1654.64 148.862 1653.63 155.34 1653.63 162.578V256.415H1616.42V85.8318H1653.28V105.06C1658.98 96.8717 1666.04 90.8797 1674.47 87.0805C1682.9 83.2813 1692.33 81.3701 1702.77 81.3701ZM1824.93 81.3701C1837.16 81.3701 1847.66 83.6655 1856.45 88.2332C1865.24 92.8042 1872.59 98.8855 1878.53 106.477V0H1915.75V256.412H1878.53V235.939C1872.59 243.537 1865.24 249.585 1856.45 254.097C1847.66 258.615 1837.16 260.871 1824.93 260.871C1812.94 260.871 1801.78 258.641 1791.46 254.193C1781.14 249.738 1772.11 243.537 1764.39 235.578C1756.68 227.635 1750.63 218.165 1746.23 207.178C1741.84 196.194 1739.64 184.177 1739.64 171.124C1739.64 158.06 1741.84 146.04 1746.23 135.063C1750.63 124.089 1756.68 114.609 1764.39 106.663C1772.11 98.7034 1781.14 92.5094 1791.46 88.0477C1801.78 83.6026 1812.94 81.3701 1824.93 81.3701ZM1959.2 240.639C1960.73 240.639 1962.16 240.92 1963.49 241.493C1964.83 242.06 1966 242.832 1967.01 243.819C1968.01 244.803 1968.81 245.955 1969.37 247.27C1969.95 248.595 1970.24 249.996 1970.24 251.487C1970.24 252.974 1969.95 254.372 1969.37 255.687C1968.81 256.998 1968.01 258.148 1967.01 259.132C1966 260.115 1964.83 260.894 1963.49 261.463C1962.16 262.043 1960.73 262.331 1959.2 262.331C1957.64 262.331 1956.19 262.043 1954.83 261.463C1953.48 260.894 1952.3 260.115 1951.31 259.132C1950.32 258.148 1949.53 256.995 1948.96 255.687C1948.38 254.375 1948.1 252.974 1948.1 251.487C1948.1 249.996 1948.38 248.595 1948.96 247.27C1949.53 245.952 1950.32 244.803 1951.31 243.819C1952.3 242.832 1953.48 242.06 1954.83 241.493C1956.19 240.92 1957.64 240.639 1959.2 240.639ZM1959.2 259.943C1960.37 259.943 1961.46 259.718 1962.48 259.281C1963.48 258.83 1964.37 258.234 1965.12 257.469C1965.9 256.71 1966.49 255.809 1966.93 254.786C1967.36 253.756 1967.58 252.659 1967.58 251.487C1967.58 250.318 1967.36 249.218 1966.93 248.188C1966.49 247.161 1965.9 246.267 1965.12 245.501C1964.37 244.736 1963.48 244.143 1962.48 243.706C1961.46 243.269 1960.37 243.057 1959.2 243.057C1958.02 243.057 1956.9 243.266 1955.87 243.706C1954.83 244.143 1953.93 244.736 1953.17 245.501C1952.41 246.267 1951.81 247.161 1951.37 248.188C1950.95 249.218 1950.73 250.318 1950.73 251.487C1950.73 252.659 1950.95 253.756 1951.37 254.786C1951.81 255.806 1952.41 256.707 1953.17 257.469C1953.93 258.231 1954.83 258.83 1955.87 259.281C1956.9 259.718 1958.02 259.943 1959.2 259.943ZM1959.84 246.412C1961.15 246.412 1962.13 246.694 1962.84 247.273C1963.53 247.853 1963.88 248.635 1963.88 249.625C1963.88 250.46 1963.61 251.146 1963.04 251.689C1962.49 252.232 1961.7 252.557 1960.67 252.686L1963.97 256.485H1961.38L1958.32 252.709H1957.35V256.485H1955.19V246.412H1959.84ZM1957.35 248.3V250.98H1959.82C1960.38 250.98 1960.83 250.871 1961.17 250.645C1961.51 250.427 1961.68 250.086 1961.68 249.625C1961.68 249.181 1961.51 248.853 1961.17 248.628C1960.83 248.41 1960.38 248.3 1959.82 248.3H1957.35ZM1829.38 116.454C1821.3 116.454 1814.09 117.911 1807.75 120.813C1801.39 123.731 1796.03 127.653 1791.64 132.568C1787.25 137.507 1783.86 143.277 1781.48 149.931C1779.12 156.586 1777.92 163.641 1777.92 171.124C1777.92 178.599 1779.12 185.665 1781.48 192.309C1783.86 198.96 1787.25 204.753 1791.64 209.672C1796.03 214.601 1801.39 218.509 1807.75 221.431C1814.09 224.329 1821.31 225.787 1829.38 225.787C1837.09 225.787 1844.1 224.392 1850.4 221.603C1856.69 218.814 1862.09 214.988 1866.6 210.116C1871.11 205.25 1874.61 199.497 1877.1 192.842C1879.61 186.195 1880.86 178.957 1880.86 171.124C1880.86 163.28 1879.61 156.043 1877.1 149.395C1874.61 142.74 1871.11 136.987 1866.6 132.115C1862.09 127.262 1856.69 123.423 1850.4 120.634C1844.1 117.852 1837.09 116.454 1829.38 116.454Z" fill="#EB001B"/>
</g>
<defs>
<clipPath id="clip0_1899_16">
<rect width="1970.24" height="600" fill="white"/>
</clipPath>
</defs>
</svg>
