<svg width="971" height="600" viewBox="0 0 971 600" fill="none" xmlns="http://www.w3.org/2000/svg">
<g clip-path="url(#clip0_1899_14)">
<path d="M616.635 64.1436H354.135V535.863H616.635V64.1436Z" fill="#FF5F00"/>
<path d="M370.809 300C370.767 254.57 381.062 209.726 400.914 168.863C420.766 128 449.654 92.1884 485.391 64.1402C441.135 29.3538 387.985 7.72064 332.015 1.71336C276.046 -4.29392 219.515 5.56709 168.884 30.1692C118.254 54.7713 75.5671 93.122 45.7023 140.838C15.8375 188.553 0 243.709 0 300C0 356.291 15.8375 411.447 45.7023 459.162C75.5671 506.878 118.254 545.229 168.884 569.831C219.515 594.433 276.046 604.294 332.015 598.287C387.985 592.279 441.135 570.646 485.391 535.86C449.654 507.811 420.766 472 400.914 431.137C381.063 390.274 370.768 345.43 370.809 300Z" fill="#EB001B"/>
<path d="M970.759 300C970.761 356.29 954.926 411.445 925.062 459.161C895.199 506.877 852.513 545.227 801.884 569.83C751.255 594.432 694.725 604.293 638.756 598.286C582.787 592.279 529.638 570.646 485.383 535.859C521.089 507.783 549.955 471.966 569.803 431.109C589.651 390.253 599.964 345.423 599.964 300C599.964 254.577 589.651 209.747 569.803 168.89C549.955 128.034 521.089 92.2166 485.383 64.14C529.638 29.3536 582.787 7.7205 638.756 1.7133C694.725 -4.29389 751.255 5.56729 801.884 30.1697C852.513 54.772 895.199 93.1228 925.062 140.839C954.926 188.554 970.761 243.709 970.759 300Z" fill="#F79E1B"/>
<path d="M942.156 485.895V476.238H946.05V474.27H936.133V476.238H940.029V485.895H942.156ZM961.41 485.895V474.251H958.37L954.874 482.26L951.376 474.251H948.334V485.895H950.481V477.112L953.76 484.684H955.986L959.265 477.093V485.895H961.41Z" fill="#F79E1B"/>
</g>
<defs>
<clipPath id="clip0_1899_14">
<rect width="970.76" height="600" fill="white"/>
</clipPath>
</defs>
</svg>
