<svg width="600" height="600" viewBox="0 0 600 600" fill="none" xmlns="http://www.w3.org/2000/svg">
<g clip-path="url(#clip0_1899_13)">
<path d="M0 599.994H599.994V0.000244141H0V599.994Z" fill="white"/>
<path d="M0 599.994H599.994V299.997H0V599.994Z" fill="#1434CB"/>
<mask id="mask0_1899_13" style="mask-type:luminance" maskUnits="userSpaceOnUse" x="0" y="0" width="600" height="600">
<path d="M0 0H600V600H0V0Z" fill="white"/>
</mask>
<g mask="url(#mask0_1899_13)">
<path d="M287.005 83.8821L258.186 218.612H223.329L252.15 83.8821H287.005ZM433.647 170.879L451.992 120.285L462.55 170.879H433.647ZM472.55 218.612H504.78L476.623 83.8821H446.892C440.192 83.8821 434.544 87.7669 432.044 93.7578L379.744 218.612H416.35L423.617 198.491H468.329L472.55 218.612ZM381.559 174.628C381.711 139.07 332.405 137.1 332.735 121.212C332.841 116.385 337.447 111.243 347.514 109.928C352.505 109.285 366.277 108.764 381.889 115.958L387.995 87.376C379.611 84.3427 368.82 81.4215 355.392 81.4215C320.935 81.4215 296.695 99.7245 296.502 125.955C296.28 145.352 313.817 156.167 327.002 162.628C340.595 169.231 345.15 173.464 345.083 179.364C344.989 188.403 334.244 192.406 324.238 192.558C306.705 192.831 296.541 187.818 288.441 184.043L282.114 213.579C290.271 217.312 305.302 220.561 320.865 220.728C357.498 220.728 381.45 202.64 381.559 174.628ZM237.199 83.8821L180.723 218.612H143.883L116.089 111.088C114.405 104.476 112.935 102.046 107.811 99.2518C99.4288 94.7003 85.5924 90.4427 73.4258 87.7942L74.25 83.8821H133.559C141.114 83.8821 147.911 88.9094 149.641 97.6124L164.323 175.582L200.58 83.8821H237.199Z" fill="#1434CB"/>
<path d="M139.776 466.152C143.713 468.476 149.87 470.495 156.231 470.495C164.104 470.495 168.543 466.758 168.543 461.207C168.543 456.058 165.113 453.031 156.531 449.904C145.228 445.964 138.061 439.91 138.061 430.219C138.061 419.013 147.346 410.637 162.186 410.637C169.555 410.637 174.904 412.252 178.437 413.967L175.51 424.061C172.986 422.749 168.243 420.831 161.883 420.831C154.01 420.831 150.68 424.97 150.68 429.007C150.68 434.258 154.613 436.676 163.701 440.11C175.51 444.652 181.161 450.61 181.161 460.298C181.161 471.301 172.886 480.688 155.422 480.688C148.155 480.688 140.686 478.67 136.949 476.449L139.776 466.152Z" fill="white"/>
<path d="M229.418 449.497H203.778V469.485H232.448V479.679H191.363V411.645H230.933V421.839H203.778V439.403H229.418V449.497Z" fill="white"/>
<path d="M291.103 477.66C288.175 479.072 281.715 480.688 273.439 480.688C251.836 480.688 238.715 467.16 238.715 446.469C238.715 424.063 254.36 410.636 275.154 410.636C283.33 410.636 289.085 412.251 291.609 413.563L288.985 423.454C285.754 422.042 281.212 420.83 275.66 420.83C261.83 420.83 251.836 429.512 251.836 445.863C251.836 460.806 260.518 470.291 275.557 470.291C280.503 470.291 285.754 469.281 289.085 467.869L291.103 477.66Z" fill="white"/>
<path d="M313.017 411.645V451.314C313.017 464.639 318.568 470.796 326.947 470.796C335.932 470.796 341.28 464.639 341.28 451.314V411.645H353.695V450.505C353.695 471.502 342.896 480.787 326.544 480.787C310.796 480.787 300.602 472.008 300.602 450.608V411.645H313.017Z" fill="white"/>
<path d="M379.241 442.634H386.61C394.989 442.634 400.138 438.192 400.138 431.431C400.138 424.062 394.989 420.528 386.913 420.528C382.974 420.528 380.453 420.831 379.241 421.134V442.634ZM366.932 412.652C371.671 411.746 378.538 411.14 385.704 411.14C395.492 411.14 402.056 412.755 406.698 416.592C410.432 419.719 412.55 424.465 412.55 430.322C412.55 439.101 406.595 445.055 400.138 447.277V447.58C405.08 449.395 408.01 454.14 409.626 460.701C411.847 469.183 413.662 477.052 414.977 479.68H402.259C401.247 477.662 399.529 472.11 397.713 463.631C395.695 454.746 392.565 451.919 385.501 451.719H379.241V479.68H366.932V412.652Z" fill="white"/>
<path d="M461.422 449.497H435.782V469.485H464.449V479.679H423.367V411.645H462.934V421.839H435.782V439.403H461.422V449.497Z" fill="white"/>
</g>
<path d="M0 599.994H599.994V0.000244141H0V599.994Z" fill="white"/>
<path d="M0 599.994H599.994V299.997H0V599.994Z" fill="#1434CB"/>
<mask id="mask1_1899_13" style="mask-type:luminance" maskUnits="userSpaceOnUse" x="0" y="0" width="600" height="600">
<path d="M0 0H600V600H0V0Z" fill="white"/>
</mask>
<g mask="url(#mask1_1899_13)">
<path d="M287.005 83.8811L258.186 218.611H223.329L252.15 83.8811H287.005ZM433.647 170.878L451.992 120.284L462.55 170.878H433.647ZM472.55 218.611H504.78L476.623 83.8811H446.892C440.192 83.8811 434.544 87.766 432.044 93.7569L379.744 218.611H416.35L423.617 198.49H468.329L472.55 218.611ZM381.559 174.627C381.711 139.069 332.405 137.099 332.735 121.211C332.841 116.384 337.447 111.242 347.514 109.927C352.505 109.284 366.277 108.763 381.889 115.957L387.995 87.375C379.611 84.3417 368.82 81.4205 355.392 81.4205C320.935 81.4205 296.695 99.7235 296.502 125.954C296.28 145.351 313.817 156.166 327.002 162.627C340.595 169.23 345.15 173.463 345.083 179.363C344.989 188.402 334.244 192.405 324.238 192.557C306.705 192.83 296.541 187.817 288.441 184.042L282.114 213.578C290.271 217.311 305.302 220.56 320.865 220.727C357.498 220.727 381.45 202.639 381.559 174.627ZM237.199 83.8811L180.723 218.611H143.883L116.089 111.087C114.405 104.475 112.935 102.045 107.811 99.2508C99.4288 94.6993 85.5924 90.4417 73.4258 87.7932L74.25 83.8811H133.559C141.114 83.8811 147.911 88.9084 149.641 97.6114L164.323 175.581L200.58 83.8811H237.199Z" fill="#1434CB"/>
</g>
<path d="M136.715 407.832C136.604 406.705 136.124 405.83 135.277 405.206C134.429 404.582 133.279 404.27 131.827 404.27C130.84 404.27 130.006 404.41 129.326 404.689C128.647 404.959 128.125 405.336 127.762 405.821C127.408 406.305 127.231 406.854 127.231 407.469C127.213 407.981 127.32 408.428 127.553 408.81C127.795 409.191 128.125 409.522 128.544 409.801C128.963 410.071 129.448 410.309 129.997 410.514C130.546 410.709 131.133 410.877 131.757 411.017L134.327 411.631C135.575 411.911 136.72 412.283 137.763 412.749C138.806 413.214 139.709 413.787 140.473 414.467C141.236 415.146 141.828 415.947 142.247 416.869C142.675 417.791 142.894 418.848 142.903 420.04C142.894 421.79 142.447 423.308 141.562 424.593C140.687 425.869 139.421 426.861 137.763 427.568C136.115 428.267 134.127 428.616 131.799 428.616C129.489 428.616 127.478 428.262 125.765 427.554C124.061 426.847 122.729 425.799 121.77 424.412C120.82 423.015 120.322 421.288 120.275 419.23H126.128C126.193 420.189 126.468 420.99 126.952 421.632C127.445 422.265 128.102 422.745 128.921 423.071C129.75 423.387 130.686 423.546 131.729 423.546C132.753 423.546 133.643 423.397 134.397 423.099C135.16 422.801 135.752 422.386 136.171 421.856C136.59 421.325 136.799 420.715 136.799 420.026C136.799 419.383 136.608 418.843 136.227 418.406C135.854 417.968 135.305 417.595 134.578 417.288C133.861 416.981 132.981 416.701 131.938 416.45L128.824 415.668C126.412 415.081 124.508 414.164 123.111 412.916C121.714 411.668 121.02 409.988 121.03 407.874C121.02 406.142 121.481 404.629 122.412 403.334C123.353 402.04 124.643 401.03 126.281 400.303C127.92 399.577 129.783 399.214 131.869 399.214C133.992 399.214 135.845 399.577 137.428 400.303C139.02 401.03 140.259 402.04 141.143 403.334C142.028 404.629 142.484 406.128 142.512 407.832H136.715ZM146.971 428.211V399.605H166.247V404.591H153.019V411.408H165.255V416.394H153.019V423.224H166.303V428.211H146.971ZM196.295 409.62H190.177C190.065 408.828 189.837 408.125 189.493 407.511C189.148 406.887 188.706 406.356 188.166 405.918C187.626 405.481 187.002 405.145 186.294 404.913C185.596 404.68 184.837 404.563 184.017 404.563C182.537 404.563 181.247 404.931 180.148 405.667C179.05 406.393 178.197 407.455 177.592 408.852C176.987 410.239 176.684 411.924 176.684 413.908C176.684 415.947 176.987 417.661 177.592 419.048C178.207 420.436 179.063 421.483 180.162 422.191C181.261 422.899 182.532 423.252 183.975 423.252C184.786 423.252 185.535 423.145 186.224 422.931C186.923 422.717 187.542 422.405 188.082 421.995C188.622 421.576 189.069 421.069 189.423 420.473C189.786 419.877 190.038 419.197 190.177 418.433L196.295 418.461C196.137 419.774 195.741 421.041 195.108 422.261C194.484 423.471 193.641 424.556 192.58 425.515C191.527 426.465 190.27 427.219 188.808 427.778C187.356 428.327 185.712 428.602 183.878 428.602C181.326 428.602 179.045 428.025 177.033 426.87C175.031 425.715 173.448 424.044 172.284 421.856C171.13 419.667 170.552 417.018 170.552 413.908C170.552 410.788 171.139 408.135 172.312 405.946C173.486 403.758 175.078 402.091 177.089 400.946C179.101 399.791 181.364 399.214 183.878 399.214C185.535 399.214 187.072 399.447 188.487 399.912C189.912 400.378 191.174 401.058 192.272 401.951C193.371 402.836 194.265 403.921 194.954 405.206C195.653 406.491 196.1 407.962 196.295 409.62ZM218.301 399.605H224.349V418.182C224.349 420.268 223.851 422.093 222.855 423.657C221.868 425.222 220.485 426.442 218.706 427.317C216.928 428.183 214.856 428.616 212.491 428.616C210.116 428.616 208.04 428.183 206.261 427.317C204.483 426.442 203.1 425.222 202.113 423.657C201.126 422.093 200.632 420.268 200.632 418.182V399.605H206.68V417.665C206.68 418.755 206.918 419.723 207.393 420.571C207.877 421.418 208.556 422.084 209.432 422.568C210.307 423.052 211.327 423.294 212.491 423.294C213.664 423.294 214.684 423.052 215.55 422.568C216.425 422.084 217.1 421.418 217.575 420.571C218.059 419.723 218.301 418.755 218.301 417.665V399.605ZM229.325 428.211V399.605H240.611C242.772 399.605 244.616 399.991 246.143 400.764C247.679 401.528 248.848 402.613 249.649 404.019C250.459 405.415 250.864 407.059 250.864 408.949C250.864 410.849 250.454 412.483 249.635 413.852C248.815 415.212 247.628 416.254 246.073 416.981C244.527 417.707 242.655 418.07 240.458 418.07H232.901V413.21H239.48C240.635 413.21 241.594 413.051 242.357 412.735C243.121 412.418 243.689 411.943 244.061 411.31C244.443 410.677 244.634 409.89 244.634 408.949C244.634 408 244.443 407.199 244.061 406.547C243.689 405.895 243.116 405.402 242.343 405.066C241.58 404.722 240.616 404.549 239.452 404.549H235.374V428.211H229.325ZM244.774 415.193L251.883 428.211H245.207L238.251 415.193H244.774ZM255.138 428.211V399.605H274.414V404.591H261.186V411.408H273.422V416.394H261.186V423.224H274.469V428.211H255.138Z" fill="white"/>
<path d="M0 599.994H599.994V0.000244141H0V599.994Z" fill="white"/>
<path d="M0 599.994H599.994V299.997H0V599.994Z" fill="#1434CB"/>
<mask id="mask2_1899_13" style="mask-type:luminance" maskUnits="userSpaceOnUse" x="0" y="0" width="600" height="600">
<path d="M0 0H600V600H0V0Z" fill="white"/>
</mask>
<g mask="url(#mask2_1899_13)">
<path d="M287.005 83.8821L258.186 218.612H223.329L252.15 83.8821H287.005ZM433.647 170.879L451.992 120.285L462.55 170.879H433.647ZM472.55 218.612H504.78L476.623 83.8821H446.892C440.192 83.8821 434.544 87.7669 432.044 93.7578L379.744 218.612H416.35L423.617 198.491H468.329L472.55 218.612ZM381.559 174.628C381.711 139.07 332.405 137.1 332.735 121.212C332.841 116.385 337.447 111.243 347.514 109.928C352.505 109.285 366.277 108.764 381.889 115.958L387.995 87.376C379.611 84.3427 368.82 81.4215 355.392 81.4215C320.935 81.4215 296.695 99.7245 296.502 125.955C296.28 145.352 313.817 156.167 327.002 162.628C340.595 169.231 345.15 173.464 345.083 179.364C344.989 188.403 334.244 192.406 324.238 192.558C306.705 192.831 296.541 187.818 288.441 184.043L282.114 213.579C290.271 217.312 305.302 220.561 320.865 220.728C357.498 220.728 381.45 202.64 381.559 174.628ZM237.199 83.8821L180.723 218.612H143.883L116.089 111.088C114.405 104.476 112.935 102.046 107.811 99.2518C99.4288 94.7003 85.5924 90.4427 73.4258 87.7942L74.25 83.8821H133.559C141.114 83.8821 147.911 88.9094 149.641 97.6124L164.323 175.582L200.58 83.8821H237.199Z" fill="#1434CB"/>
<path d="M123.893 435.374C123.893 430.902 124.95 427.093 127.065 423.932C129.18 420.774 132.132 418.344 135.917 416.644C139.699 414.947 144.096 414.099 149.102 414.099C154.287 414.099 158.368 414.529 161.347 415.393C164.329 416.256 166.711 417.196 168.502 418.211L169.574 431.977H169.217C167.665 430.726 165.759 429.635 163.493 428.714C161.229 427.789 158.847 427.074 156.341 426.568C153.838 426.062 151.396 425.808 149.014 425.808C145.674 425.808 143.023 426.253 141.056 427.147C139.09 428.041 138.105 429.711 138.105 432.156C138.105 434.002 138.553 435.447 139.447 436.489C140.341 437.535 141.787 438.414 143.783 439.126C145.78 439.844 148.417 440.617 151.696 441.453C154.911 442.229 157.908 443.047 160.677 443.908C163.45 444.777 165.862 445.908 167.92 447.308C169.977 448.708 171.568 450.586 172.702 452.938C173.832 455.293 174.399 458.347 174.399 462.102C174.399 469.314 172.074 474.856 167.429 478.729C162.78 482.605 156.283 484.541 147.941 484.541C145.199 484.541 142.396 484.286 139.538 483.78C136.677 483.274 133.993 482.571 131.49 481.677C128.99 480.783 126.844 479.714 125.056 478.462L124.071 464.605H124.52C127.499 467.108 131.162 469.105 135.514 470.593C139.865 472.083 144.244 472.829 148.653 472.829C152.411 472.829 155.18 472.247 156.968 471.086C158.756 469.923 159.65 468.123 159.65 465.677C159.65 463.95 159.247 462.535 158.444 461.432C157.638 460.329 156.223 459.362 154.196 458.526C152.171 457.693 149.311 456.826 145.614 455.932C142.814 455.22 140.117 454.429 137.526 453.565C134.935 452.702 132.608 451.538 130.553 450.08C128.499 448.617 126.871 446.711 125.68 444.356C124.487 442.005 123.893 439.008 123.893 435.374Z" fill="white"/>
<path d="M182.627 483.288V415.349H227.769V427.776H197.912V442.258H221.333V454.234H197.912V470.861H227.769V483.288H182.627Z" fill="white"/>
<path d="M248.953 449.319C248.953 456.47 250.844 462.058 254.632 466.079C258.414 470.101 263.705 472.113 270.496 472.113C275.265 472.113 279.214 471.385 282.344 469.925C285.471 468.464 288.286 466.601 290.789 464.337H291.147L289.538 478.91C286.914 480.458 283.908 481.785 280.511 482.885C277.111 483.985 273.089 484.54 268.441 484.54C262.899 484.54 257.95 483.646 253.602 481.858C249.25 480.07 245.526 477.582 242.429 474.392C239.329 471.207 236.974 467.464 235.365 463.173C233.756 458.882 232.953 454.267 232.953 449.319C232.953 444.373 233.756 439.755 235.365 435.464C236.974 431.173 239.314 427.431 242.383 424.246C245.453 421.058 249.177 418.567 253.559 416.779C257.938 414.992 262.868 414.098 268.35 414.098C273.002 414.098 276.98 414.558 280.286 415.482C283.593 416.41 286.38 417.704 288.644 419.37L290.344 434.031H289.986C287.48 431.831 284.577 430.025 281.271 428.625C277.962 427.225 274.371 426.525 270.496 426.525C263.705 426.525 258.414 428.537 254.632 432.558C250.844 436.579 248.953 442.167 248.953 449.319Z" fill="white"/>
<path d="M328.6 471.577C333.842 471.577 337.691 470.429 340.136 468.135C342.576 465.841 343.8 462.102 343.8 456.917V415.347H356.673V457.723C356.673 467.017 354.197 473.811 349.251 478.102C344.306 482.393 337.124 484.538 327.706 484.538C318.348 484.538 311.094 482.423 305.939 478.193C300.785 473.959 298.209 467.168 298.209 457.811V415.347H313.494V456.826C313.494 462.071 314.67 465.841 317.027 468.135C319.379 470.429 323.236 471.577 328.6 471.577Z" fill="white"/>
<path d="M393.411 427.24H382.502V446.815H393.411C397.044 446.815 399.759 446.1 401.547 444.67C403.332 443.24 404.226 440.679 404.226 436.982C404.226 433.406 403.332 430.888 401.547 429.431C399.759 427.967 397.044 427.24 393.411 427.24ZM367.217 483.288V415.349H397.702C402.229 415.349 406.193 416.258 409.59 418.076C412.986 419.894 415.608 422.397 417.459 425.585C419.305 428.773 420.229 432.455 420.229 436.624C420.229 441.155 419.065 445.131 416.741 448.558C414.42 451.985 411.259 454.415 407.265 455.843L423.802 483.288H406.283L391.977 457.9H382.502V483.288H367.217Z" fill="white"/>
<path d="M431.404 483.288V415.349H476.547V427.776H446.689V442.258H470.11V454.234H446.689V470.861H476.547V483.288H431.404Z" fill="white"/>
</g>
<path d="M0 599.994H599.994V0.000244141H0V599.994Z" fill="white"/>
<path d="M0 599.994H599.994V299.997H0V599.994Z" fill="#1434CB"/>
<mask id="mask3_1899_13" style="mask-type:luminance" maskUnits="userSpaceOnUse" x="0" y="0" width="600" height="600">
<path d="M0 0H600V600H0V0Z" fill="white"/>
</mask>
<g mask="url(#mask3_1899_13)">
<path d="M287.005 83.8811L258.186 218.611H223.329L252.15 83.8811H287.005ZM433.647 170.878L451.992 120.284L462.55 170.878H433.647ZM472.55 218.611H504.78L476.623 83.8811H446.892C440.192 83.8811 434.544 87.766 432.044 93.7569L379.744 218.611H416.35L423.617 198.49H468.329L472.55 218.611ZM381.559 174.627C381.711 139.069 332.405 137.099 332.735 121.211C332.841 116.384 337.447 111.242 347.514 109.927C352.505 109.284 366.277 108.763 381.889 115.957L387.995 87.375C379.611 84.3417 368.82 81.4205 355.392 81.4205C320.935 81.4205 296.695 99.7235 296.502 125.954C296.28 145.351 313.817 156.166 327.002 162.627C340.595 169.23 345.15 173.463 345.083 179.363C344.989 188.402 334.244 192.405 324.238 192.557C306.705 192.83 296.541 187.817 288.441 184.042L282.114 213.578C290.271 217.311 305.302 220.56 320.865 220.727C357.498 220.727 381.45 202.639 381.559 174.627ZM237.199 83.8811L180.723 218.611H143.883L116.089 111.087C114.405 104.475 112.935 102.045 107.811 99.2508C99.4288 94.6993 85.5924 90.4417 73.4258 87.7932L74.25 83.8811H133.559C141.114 83.8811 147.911 88.9084 149.641 97.6114L164.323 175.581L200.58 83.8811H237.199Z" fill="#1434CB"/>
</g>
<path d="M139.17 406.697C139.003 405.281 138.323 404.183 137.131 403.4C135.939 402.618 134.477 402.227 132.745 402.227C131.479 402.227 130.371 402.432 129.421 402.842C128.48 403.251 127.745 403.815 127.214 404.532C126.693 405.249 126.432 406.064 126.432 406.976C126.432 407.74 126.613 408.396 126.977 408.946C127.349 409.486 127.824 409.937 128.401 410.301C128.979 410.654 129.584 410.948 130.217 411.18C130.85 411.404 131.432 411.586 131.963 411.725L134.868 412.507C135.613 412.703 136.442 412.973 137.355 413.318C138.277 413.662 139.156 414.132 139.995 414.728C140.842 415.315 141.54 416.069 142.09 416.991C142.639 417.913 142.914 419.044 142.914 420.385C142.914 421.931 142.509 423.328 141.699 424.576C140.898 425.823 139.725 426.815 138.179 427.551C136.642 428.286 134.775 428.654 132.578 428.654C130.529 428.654 128.755 428.324 127.256 427.662C125.766 427.001 124.593 426.079 123.736 424.897C122.889 423.714 122.409 422.341 122.297 420.776H125.873C125.966 421.857 126.329 422.75 126.963 423.458C127.605 424.157 128.415 424.678 129.393 425.023C130.38 425.358 131.442 425.525 132.578 425.525C133.9 425.525 135.087 425.311 136.139 424.883C137.192 424.445 138.025 423.84 138.64 423.067C139.254 422.285 139.562 421.372 139.562 420.329C139.562 419.38 139.296 418.607 138.765 418.011C138.235 417.415 137.536 416.931 136.67 416.558C135.804 416.186 134.868 415.86 133.863 415.58L130.343 414.575C128.108 413.932 126.339 413.015 125.035 411.823C123.731 410.631 123.08 409.071 123.08 407.144C123.08 405.542 123.513 404.145 124.379 402.953C125.254 401.752 126.427 400.821 127.898 400.16C129.379 399.489 131.032 399.154 132.857 399.154C134.701 399.154 136.34 399.485 137.774 400.146C139.208 400.798 140.344 401.692 141.182 402.828C142.029 403.964 142.476 405.253 142.523 406.697H139.17ZM148.609 428.151V399.545H165.873V402.618H152.073V412.284H164.979V415.357H152.073V425.078H166.097V428.151H148.609ZM195.136 408.485H191.672C191.467 407.488 191.109 406.613 190.596 405.859C190.094 405.104 189.479 404.471 188.753 403.959C188.036 403.438 187.239 403.047 186.364 402.786C185.489 402.525 184.576 402.395 183.626 402.395C181.894 402.395 180.325 402.832 178.919 403.708C177.523 404.583 176.41 405.873 175.581 407.577C174.762 409.281 174.352 411.371 174.352 413.848C174.352 416.325 174.762 418.416 175.581 420.12C176.41 421.824 177.523 423.114 178.919 423.989C180.325 424.864 181.894 425.302 183.626 425.302C184.576 425.302 185.489 425.172 186.364 424.911C187.239 424.65 188.036 424.264 188.753 423.752C189.479 423.23 190.094 422.592 190.596 421.838C191.109 421.074 191.467 420.199 191.672 419.212H195.136C194.875 420.674 194.4 421.982 193.711 423.137C193.022 424.292 192.165 425.274 191.141 426.084C190.117 426.885 188.967 427.495 187.691 427.914C186.425 428.333 185.07 428.542 183.626 428.542C181.187 428.542 179.017 427.947 177.117 426.755C175.218 425.563 173.723 423.868 172.634 421.67C171.544 419.473 171 416.865 171 413.848C171 410.831 171.544 408.224 172.634 406.026C173.723 403.829 175.218 402.134 177.117 400.942C179.017 399.75 181.187 399.154 183.626 399.154C185.07 399.154 186.425 399.364 187.691 399.783C188.967 400.202 190.117 400.816 191.141 401.627C192.165 402.427 193.022 403.405 193.711 404.56C194.4 405.705 194.875 407.013 195.136 408.485ZM219.506 399.545H222.97V418.486C222.97 420.441 222.509 422.187 221.587 423.724C220.675 425.251 219.385 426.457 217.718 427.341C216.052 428.217 214.096 428.654 211.852 428.654C209.608 428.654 207.652 428.217 205.985 427.341C204.319 426.457 203.024 425.251 202.102 423.724C201.19 422.187 200.734 420.441 200.734 418.486V399.545H204.198V418.206C204.198 419.603 204.505 420.846 205.119 421.936C205.734 423.016 206.609 423.868 207.745 424.492C208.891 425.106 210.26 425.414 211.852 425.414C213.444 425.414 214.813 425.106 215.958 424.492C217.104 423.868 217.979 423.016 218.584 421.936C219.199 420.846 219.506 419.603 219.506 418.206V399.545ZM229.888 428.151V399.545H239.554C241.788 399.545 243.623 399.927 245.057 400.691C246.491 401.445 247.552 402.483 248.242 403.805C248.931 405.128 249.275 406.632 249.275 408.317C249.275 410.003 248.931 411.497 248.242 412.801C247.552 414.104 246.496 415.129 245.071 415.874C243.646 416.609 241.826 416.977 239.609 416.977H231.787V413.848H239.498C241.025 413.848 242.254 413.625 243.185 413.178C244.126 412.731 244.805 412.098 245.224 411.278C245.653 410.45 245.867 409.462 245.867 408.317C245.867 407.172 245.653 406.171 245.224 405.314C244.796 404.457 244.112 403.796 243.171 403.331C242.231 402.856 240.988 402.618 239.442 402.618H233.352V428.151H229.888ZM243.353 415.301L250.393 428.151H246.37L239.442 415.301H243.353ZM255.047 428.151V399.545H272.312V402.618H258.511V412.284H271.418V415.357H258.511V425.078H272.535V428.151H255.047Z" fill="white"/>
<path d="M0 599.994H599.994V0.000244141H0V599.994Z" fill="white"/>
<path d="M0 599.994H599.994V299.997H0V599.994Z" fill="#1434CB"/>
<mask id="mask4_1899_13" style="mask-type:luminance" maskUnits="userSpaceOnUse" x="0" y="0" width="600" height="600">
<path d="M0 0H600V600H0V0Z" fill="white"/>
</mask>
<g mask="url(#mask4_1899_13)">
<path d="M287.005 83.884L258.186 218.614H223.329L252.15 83.884H287.005ZM433.647 170.881L451.992 120.287L462.55 170.881H433.647ZM472.55 218.614H504.78L476.623 83.884H446.892C440.192 83.884 434.544 87.7689 432.044 93.7598L379.744 218.614H416.35L423.617 198.493H468.329L472.55 218.614ZM381.559 174.629C381.711 139.072 332.405 137.102 332.735 121.214C332.841 116.387 337.447 111.245 347.514 109.929C352.505 109.287 366.277 108.766 381.889 115.96L387.995 87.378C379.611 84.3447 368.82 81.4234 355.392 81.4234C320.935 81.4234 296.695 99.7265 296.502 125.957C296.28 145.354 313.817 156.169 327.002 162.629C340.595 169.233 345.15 173.466 345.083 179.366C344.989 188.405 334.244 192.408 324.238 192.56C306.705 192.833 296.541 187.82 288.441 184.045L282.114 213.581C290.271 217.314 305.302 220.563 320.865 220.729C357.498 220.729 381.45 202.642 381.559 174.629ZM237.199 83.884L180.723 218.614H143.883L116.089 111.09C114.405 104.478 112.935 102.048 107.811 99.2537C99.4288 94.7022 85.5924 90.4446 73.4258 87.7962L74.25 83.884H133.559C141.114 83.884 147.911 88.9113 149.641 97.6143L164.323 175.584L200.58 83.884H237.199Z" fill="#1434CB"/>
<path d="M126.282 433.319C126.282 429.028 127.325 425.395 129.413 422.413C131.497 419.434 134.343 417.186 137.949 415.664C141.555 414.146 145.622 413.386 150.149 413.386C155.216 413.386 159.252 413.877 162.264 414.858C165.273 415.843 167.582 416.843 169.191 417.852L169.997 429.119H169.728C168.237 427.868 166.407 426.764 164.231 425.81C162.055 424.858 159.746 424.098 157.304 423.534C154.858 422.964 152.443 422.683 150.061 422.683C146.307 422.683 143.267 423.292 140.943 424.516C138.619 425.737 137.458 427.868 137.458 430.907C137.458 433.231 138.007 435.049 139.11 436.358C140.213 437.674 141.867 438.743 144.073 439.577C146.276 440.413 149.019 441.277 152.294 442.171C155.394 443.004 158.3 443.855 161.013 444.719C163.722 445.583 166.091 446.716 168.119 448.116C170.146 449.516 171.74 451.364 172.9 453.658C174.064 455.952 174.643 458.889 174.643 462.461C174.643 469.377 172.394 474.668 167.894 478.331C163.394 481.995 157.091 483.828 148.988 483.828C144.937 483.828 140.855 483.274 136.743 482.174C132.631 481.074 129.291 479.595 126.728 477.749L126.016 466.395H126.282C129.261 468.898 132.84 470.868 137.01 472.295C141.182 473.725 145.382 474.44 149.616 474.44C158.613 474.44 163.113 471.343 163.113 465.143C163.113 462.94 162.607 461.152 161.594 459.78C160.579 458.41 158.94 457.261 156.676 456.34C154.413 455.416 151.461 454.477 147.828 453.522C144.967 452.749 142.255 451.916 139.691 451.022C137.131 450.125 134.834 448.964 132.81 447.531C130.782 446.104 129.188 444.255 128.025 441.992C126.864 439.725 126.282 436.837 126.282 433.319Z" fill="white"/>
<path d="M183.582 482.576V414.637H227.385V424.47H195.561V442.616H220.679V452.091H195.561V472.743H227.385V482.576H183.582Z" fill="white"/>
<path d="M245.533 448.607C245.533 453.731 246.472 458.204 248.348 462.016C250.224 465.831 252.921 468.78 256.439 470.868C259.954 472.952 264.184 473.995 269.133 473.995C274.196 473.995 278.399 473.234 281.736 471.716C285.072 470.195 287.993 468.216 290.496 465.771H290.766L289.515 477.661C286.89 479.449 283.793 480.922 280.218 482.086C276.642 483.249 272.469 483.828 267.702 483.828C262.339 483.828 257.527 482.919 253.266 481.104C249.002 479.283 245.366 476.783 242.36 473.592C239.348 470.404 237.054 466.664 235.475 462.374C233.896 458.083 233.105 453.492 233.105 448.607C233.105 443.661 233.896 439.058 235.475 434.795C237.054 430.534 239.348 426.81 242.36 423.622C245.366 420.434 248.987 417.931 253.221 416.11C257.451 414.295 262.218 413.386 267.524 413.386C272.29 413.386 276.402 413.877 279.86 414.858C283.315 415.843 286.266 417.258 288.712 419.107L289.96 431.264H289.693C287.19 428.822 284.239 426.871 280.842 425.41C277.445 423.949 273.481 423.219 268.954 423.219C264.005 423.219 259.79 424.261 256.305 426.346C252.818 428.434 250.148 431.383 248.305 435.198C246.457 439.013 245.533 443.483 245.533 448.607Z" fill="white"/>
<path d="M328.576 473.636C334.713 473.636 339.182 472.312 341.985 469.66C344.785 467.006 346.188 462.494 346.188 456.115V414.636H356.197V456.742C356.197 466.276 353.797 473.176 349 477.436C344.203 481.697 337.216 483.827 328.04 483.827C318.919 483.827 311.831 481.712 306.764 477.482C301.697 473.248 299.164 466.339 299.164 456.742V414.636H311.143V455.848C311.143 462.224 312.497 466.785 315.213 469.527C317.922 472.267 322.376 473.636 328.576 473.636Z" fill="white"/>
<path d="M393.391 424.113H379.891V446.997H393.391C397.739 446.997 400.885 446.058 402.818 444.182C404.758 442.303 405.724 439.431 405.724 435.555C405.724 431.682 404.758 428.806 402.818 426.931C400.885 425.052 397.739 424.113 393.391 424.113ZM367.912 482.576V414.637H396.609C401.076 414.637 404.936 415.531 408.185 417.319C411.43 419.106 413.918 421.564 415.648 424.691C417.376 427.825 418.239 431.355 418.239 435.288C418.239 439.937 416.958 443.991 414.397 447.443C411.833 450.9 408.348 453.197 403.936 454.328L421.37 482.576H407.603L391.87 455.937H379.891V482.576H367.912Z" fill="white"/>
<path d="M430.309 482.576V414.637H474.112V424.47H442.287V442.616H467.409V452.091H442.287V472.743H474.112V482.576H430.309Z" fill="white"/>
</g>
<path d="M0 599.994H599.994V0.000244141H0V599.994Z" fill="white"/>
<path d="M0 599.994H599.994V299.997H0V599.994Z" fill="#1434CB"/>
<mask id="mask5_1899_13" style="mask-type:luminance" maskUnits="userSpaceOnUse" x="0" y="0" width="600" height="600">
<path d="M0 0H600V600H0V0Z" fill="white"/>
</mask>
<g mask="url(#mask5_1899_13)">
<path d="M287.005 83.8831L258.186 218.613H223.329L252.15 83.8831H287.005ZM433.647 170.88L451.992 120.286L462.55 170.88H433.647ZM472.55 218.613H504.78L476.623 83.8831H446.892C440.192 83.8831 434.544 87.7679 432.044 93.7588L379.744 218.613H416.35L423.617 198.492H468.329L472.55 218.613ZM381.559 174.629C381.711 139.071 332.405 137.101 332.735 121.213C332.841 116.386 337.447 111.244 347.514 109.929C352.505 109.286 366.277 108.765 381.889 115.959L387.995 87.377C379.611 84.3437 368.82 81.4225 355.392 81.4225C320.935 81.4225 296.695 99.7255 296.502 125.956C296.28 145.353 313.817 156.168 327.002 162.629C340.595 169.232 345.15 173.465 345.083 179.365C344.989 188.404 334.244 192.407 324.238 192.559C306.705 192.832 296.541 187.819 288.441 184.044L282.114 213.58C290.271 217.313 305.302 220.562 320.865 220.729C357.498 220.729 381.45 202.641 381.559 174.629ZM237.199 83.8831L180.723 218.613H143.883L116.089 111.089C114.405 104.477 112.935 102.047 107.811 99.2528C99.4288 94.7012 85.5924 90.4437 73.4258 87.7952L74.25 83.8831H133.559C141.114 83.8831 147.911 88.9103 149.641 97.6134L164.323 175.583L200.58 83.8831H237.199Z" fill="#1434CB"/>
<path d="M137.574 436.291C137.574 432.124 138.559 428.569 140.532 425.624C142.501 422.682 145.253 420.418 148.783 418.833C152.311 417.251 156.408 416.457 161.074 416.457C165.908 416.457 169.711 416.863 172.489 417.666C175.268 418.473 177.489 419.348 179.156 420.294L180.156 433.124H179.823C178.377 431.957 176.601 430.945 174.489 430.082C172.377 429.221 170.156 428.554 167.823 428.082C165.489 427.612 163.211 427.376 160.989 427.376C157.877 427.376 155.408 427.791 153.574 428.627C151.741 429.457 150.823 431.015 150.823 433.291C150.823 435.015 151.241 436.36 152.074 437.333C152.908 438.306 154.253 439.127 156.117 439.791C157.974 440.457 160.435 441.179 163.489 441.957C166.489 442.679 169.28 443.445 171.865 444.251C174.447 445.057 176.698 446.112 178.614 447.418C180.532 448.724 182.02 450.473 183.074 452.666C184.129 454.863 184.656 457.706 184.656 461.209C184.656 467.93 182.489 473.097 178.156 476.709C173.823 480.318 167.768 482.124 159.989 482.124C157.435 482.124 154.823 481.888 152.156 481.418C149.489 480.945 146.989 480.294 144.656 479.457C142.323 478.627 140.323 477.627 138.656 476.457L137.741 463.542H138.156C140.935 465.876 144.35 467.736 148.408 469.124C152.462 470.515 156.544 471.206 160.656 471.206C164.156 471.206 166.741 470.666 168.408 469.582C170.074 468.5 170.908 466.818 170.908 464.539C170.908 462.93 170.532 461.609 169.78 460.585C169.032 459.557 167.711 458.654 165.823 457.876C163.935 457.097 161.268 456.294 157.823 455.457C155.211 454.791 152.698 454.054 150.28 453.251C147.865 452.445 145.698 451.363 143.78 450C141.865 448.639 140.353 446.86 139.241 444.666C138.129 442.473 137.574 439.682 137.574 436.291Z" fill="white"/>
<path d="M192.322 480.958V417.625H234.407V429.21H206.574V442.71H228.407V453.873H206.574V469.376H234.407V480.958H192.322Z" fill="white"/>
<path d="M253.321 449.291C253.321 455.957 255.084 461.166 258.611 464.915C262.139 468.666 267.069 470.542 273.402 470.542C277.848 470.542 281.53 469.86 284.445 468.5C287.36 467.139 289.987 465.403 292.321 463.291H292.654L291.154 476.876C288.708 478.321 285.902 479.554 282.739 480.582C279.569 481.609 275.821 482.124 271.487 482.124C266.321 482.124 261.708 481.294 257.654 479.624C253.596 477.957 250.124 475.639 247.236 472.666C244.348 469.694 242.154 466.209 240.654 462.209C239.154 458.206 238.402 453.903 238.402 449.291C238.402 444.682 239.154 440.376 240.654 436.373C242.154 432.376 244.333 428.891 247.196 425.915C250.057 422.945 253.527 420.624 257.611 418.957C261.696 417.291 266.29 416.457 271.402 416.457C275.736 416.457 279.445 416.891 282.53 417.751C285.611 418.612 288.208 419.818 290.321 421.376L291.902 435.042H291.572C289.239 432.988 286.527 431.303 283.445 430C280.363 428.694 277.014 428.039 273.402 428.039C267.069 428.039 262.139 429.915 258.611 433.666C255.084 437.415 253.321 442.624 253.321 449.291Z" fill="white"/>
<path d="M327.571 470.041C332.456 470.041 336.04 468.972 338.319 466.832C340.598 464.693 341.734 461.208 341.734 456.375V417.623H353.737V457.123C353.737 465.793 351.428 472.123 346.819 476.126C342.207 480.123 335.513 482.123 326.737 482.123C318.013 482.123 311.246 480.153 306.443 476.208C301.637 472.262 299.234 465.932 299.234 457.208V417.623H313.486V456.293C313.486 461.181 314.583 464.693 316.774 466.832C318.971 468.972 322.571 470.041 327.571 470.041Z" fill="white"/>
<path d="M387.987 428.71H377.823V446.958H387.987C391.374 446.958 393.902 446.291 395.571 444.958C397.238 443.625 398.068 441.237 398.068 437.791C398.068 434.458 397.238 432.113 395.571 430.752C393.902 429.391 391.374 428.71 387.987 428.71ZM363.568 480.958V417.625H391.987C396.208 417.625 399.905 418.473 403.071 420.167C406.235 421.861 408.68 424.197 410.402 427.167C412.126 430.14 412.987 433.57 412.987 437.458C412.987 441.679 411.905 445.391 409.738 448.585C407.571 451.779 404.623 454.04 400.905 455.376L416.32 480.958H399.987L386.653 457.294H377.823V480.958H363.568Z" fill="white"/>
<path d="M421.732 480.958V417.625H463.817V429.21H435.984V442.71H457.814V453.873H435.984V469.376H463.817V480.958H421.732Z" fill="white"/>
</g>
<path d="M0.0390625 600H600V0.0848999H0.0390625V600Z" fill="white"/>
<path d="M0.0390625 600H600V300.088H0.0390625V600Z" fill="#1434CB"/>
<mask id="mask6_1899_13" style="mask-type:luminance" maskUnits="userSpaceOnUse" x="0" y="0" width="600" height="600">
<path d="M0 0H600V600H0V0Z" fill="white"/>
</mask>
<g mask="url(#mask6_1899_13)">
<path d="M288.869 83.9699L260.051 218.7H225.193L254.014 83.9699H288.869ZM435.514 170.97L453.86 120.37L464.417 170.97H435.514ZM474.42 218.7H506.651L478.49 83.9699H448.763C442.06 83.9699 436.411 87.8547 433.911 93.8456L381.608 218.7H418.217L425.484 198.579H470.196L474.42 218.7ZM383.423 174.715C383.578 139.158 334.272 137.188 334.599 121.3C334.708 116.473 339.311 111.33 349.381 110.015C354.369 109.37 368.142 108.852 383.757 116.046L389.863 87.4608C381.478 84.4305 370.684 81.5093 357.26 81.5093C322.799 81.5093 298.56 99.8123 298.366 126.043C298.148 145.44 315.684 156.255 328.866 162.715C342.463 169.318 347.014 173.555 346.951 179.455C346.857 188.494 336.108 192.494 326.105 192.646C308.569 192.918 298.405 187.906 290.305 184.13L283.981 213.667C292.139 217.4 307.166 220.649 322.73 220.818C359.363 220.818 383.317 202.727 383.423 174.715ZM239.063 83.9699L182.587 218.7H145.745L117.951 111.176C116.266 104.564 114.796 102.134 109.672 99.3396C101.29 94.785 87.4538 90.5305 75.2871 87.879L76.1114 83.9699H135.423C142.975 83.9699 149.775 88.9972 151.502 97.6972L166.184 175.67L202.445 83.9699H239.063Z" fill="#1434CB"/>
<path d="M125.376 432.576C125.376 428.285 126.418 424.652 128.506 421.67C130.591 418.691 133.437 416.443 137.043 414.921C140.649 413.403 144.715 412.643 149.243 412.643C154.309 412.643 158.346 413.133 161.358 414.115C164.367 415.1 166.676 416.1 168.285 417.109L169.091 428.376H168.821C167.331 427.124 165.5 426.021 163.325 425.067C161.149 424.115 158.84 423.355 156.397 422.791C153.952 422.221 151.537 421.94 149.155 421.94C145.4 421.94 142.361 422.549 140.037 423.773C137.712 424.994 136.552 427.124 136.552 430.164C136.552 432.488 137.1 434.306 138.203 435.615C139.306 436.93 140.961 438 143.167 438.833C145.37 439.67 148.112 440.533 151.388 441.427C154.488 442.261 157.394 443.112 160.106 443.976C162.815 444.84 165.185 445.973 167.212 447.373C169.24 448.773 170.834 450.621 171.994 452.915C173.158 455.209 173.737 458.146 173.737 461.718C173.737 468.633 171.488 473.924 166.988 477.588C162.488 481.252 156.185 483.085 148.082 483.085C144.031 483.085 139.949 482.53 135.837 481.43C131.725 480.33 128.385 478.852 125.821 477.006L125.109 465.652H125.376C128.355 468.155 131.934 470.124 136.103 471.552C140.276 472.982 144.476 473.697 148.709 473.697C157.706 473.697 162.206 470.6 162.206 464.4C162.206 462.197 161.7 460.409 160.688 459.036C159.673 457.667 158.034 456.518 155.77 455.597C153.506 454.673 150.555 453.733 146.921 452.779C144.061 452.006 141.349 451.173 138.785 450.279C136.225 449.382 133.928 448.221 131.903 446.788C129.876 445.361 128.282 443.512 127.118 441.249C125.958 438.982 125.376 436.094 125.376 432.576Z" fill="white"/>
<path d="M182.678 481.833V413.894H226.481V423.727H194.657V441.872H219.778V451.348H194.657V472H226.481V481.833H182.678Z" fill="white"/>
<path d="M244.628 447.864C244.628 452.988 245.568 457.461 247.444 461.273C249.319 465.088 252.016 468.036 255.535 470.124C259.05 472.209 263.28 473.252 268.228 473.252C273.292 473.252 277.495 472.491 280.835 470.973C284.171 469.452 287.092 467.473 289.595 465.027H289.862L288.61 476.918C285.986 478.706 282.889 480.179 279.313 481.343C275.738 482.506 271.565 483.085 266.798 483.085C261.435 483.085 256.622 482.176 252.362 480.361C248.098 478.54 244.462 476.04 241.456 472.849C238.444 469.661 236.15 465.921 234.571 461.63C232.992 457.34 232.201 452.749 232.201 447.864C232.201 442.918 232.992 438.315 234.571 434.052C236.15 429.791 238.444 426.067 241.456 422.879C244.462 419.691 248.083 417.188 252.316 415.367C256.547 413.552 261.313 412.643 266.619 412.643C271.386 412.643 275.498 413.133 278.956 414.115C282.413 415.1 285.362 416.515 287.807 418.364L289.059 430.521H288.789C286.286 428.079 283.338 426.127 279.941 424.667C276.541 423.206 272.577 422.476 268.05 422.476C263.101 422.476 258.886 423.518 255.401 425.603C251.913 427.691 249.244 430.64 247.401 434.455C245.553 438.27 244.628 442.74 244.628 447.864Z" fill="white"/>
<path d="M327.678 472.892C333.814 472.892 338.284 471.568 341.087 468.916C343.887 466.262 345.29 461.75 345.29 455.371V413.892H355.299V455.998C355.299 465.531 352.899 472.431 348.102 476.692C343.305 480.953 336.317 483.083 327.141 483.083C318.02 483.083 310.932 480.968 305.866 476.738C300.799 472.504 298.266 465.595 298.266 455.998V413.892H310.244V455.104C310.244 461.48 311.599 466.041 314.314 468.783C317.023 471.522 321.478 472.892 327.678 472.892Z" fill="white"/>
<path d="M392.489 423.369H378.989V446.254H392.489C396.837 446.254 399.982 445.315 401.916 443.439C403.858 441.56 404.825 438.688 404.825 434.812C404.825 430.939 403.858 428.063 401.916 426.188C399.982 424.309 396.837 423.369 392.489 423.369ZM367.01 481.833V413.894H395.707C400.173 413.894 404.037 414.788 407.286 416.575C410.531 418.363 413.019 420.821 414.749 423.948C416.476 427.081 417.34 430.612 417.34 434.545C417.34 439.194 416.058 443.248 413.498 446.7C410.934 450.157 407.449 452.454 403.034 453.585L420.47 481.833H406.704L390.967 455.194H378.989V481.833H367.01Z" fill="white"/>
<path d="M429.406 481.833V413.894H473.209V423.727H441.385V441.872H466.506V451.348H441.385V472H473.209V481.833H429.406Z" fill="white"/>
</g>
</g>
<defs>
<clipPath id="clip0_1899_13">
<rect width="600" height="600" fill="white"/>
</clipPath>
</defs>
</svg>
