<svg width="1858" height="600" viewBox="0 0 1858 600" fill="none" xmlns="http://www.w3.org/2000/svg">
<g clip-path="url(#clip0_1897_11)">
<path d="M705.393 10.6051L462.163 590.924H303.474L183.78 127.803C176.513 99.2775 170.194 88.8273 148.094 76.8095C112.011 57.2346 52.4255 38.8692 0 27.4707L3.56082 10.6051H259.002C291.562 10.6051 320.833 32.2797 328.225 69.7749L391.44 405.577L547.671 10.5954H705.393V10.6051ZM1327.16 401.455C1327.8 248.291 1115.37 239.853 1116.83 171.433C1117.29 150.61 1137.11 128.471 1180.51 122.82C1202.02 120.004 1261.29 117.856 1328.51 148.791L1354.88 25.7289C1318.76 12.6177 1272.28 0 1214.46 0C1066.07 0 961.647 78.8801 960.767 191.83C959.809 275.374 1035.3 321.994 1092.18 349.755C1150.69 378.183 1170.32 396.452 1170.1 421.881C1169.68 460.808 1123.43 477.993 1080.21 478.67C1004.75 479.832 960.97 458.254 926.068 442.027L898.858 569.162C933.934 585.254 998.678 599.294 1065.8 600C1223.51 600 1326.68 522.097 1327.16 401.455ZM1718.99 590.924H1857.83L1736.64 10.6051H1608.49C1579.67 10.6051 1555.37 27.3836 1544.61 53.1803L1319.34 590.924H1476.97L1508.26 504.245H1700.87L1718.99 590.924ZM1551.49 385.305L1630.5 167.417L1675.98 385.305H1551.49ZM919.885 10.6051L795.749 590.924H645.633L769.817 10.6051H919.885Z" fill="#1434CB"/>
</g>
<defs>
<clipPath id="clip0_1897_11">
<rect width="1857.83" height="600" fill="white"/>
</clipPath>
</defs>
</svg>
