<svg id="logo" xmlns="http://www.w3.org/2000/svg" viewBox="0 0 565.37 187.82">
  <defs>
    <style>
      .cls-1 {
        fill: #2ca9e1;
      }
    </style>
  </defs>
  <title>logo</title>
  <g>
    <path class="cls-1" d="M299.29,145.25l-10,20.39L285,141.57h-5a6.32,6.32,0,0,0-5.67,3.55l-10,20.52-2.29-13.19a12.94,12.94,0,0,0-12.74-10.72H229.6s20.71,5.34,22.44,15.11h0l4.44,25.1h9.6l12-24.14L282.71,182h9.68l20-40.22h-7.44A6.31,6.31,0,0,0,299.29,145.25Z" transform="translate(-14.95 -47.82)"/>
    <path class="cls-1" d="M335,140.69a21.36,21.36,0,0,0-16,6.64,22.31,22.31,0,0,0-6.32,16.15c0,5.76,1.92,10.4,5.84,13.92s8.8,5.27,14.79,5.27,10.72-1.19,14.16-3.59l1.36-9.28a26.89,26.89,0,0,1-12.72,3.28c-7,0-12.23-2.88-12.55-8.32h28.79a36.67,36.67,0,0,0,.71-6.95,16.64,16.64,0,0,0-4.95-12.24C344.85,142.29,340.53,140.69,335,140.69Zm7.2,16.88H324.38a10.1,10.1,0,0,1,10.15-8c4.88,0,7.68,3,7.68,7.44Z" transform="translate(-14.95 -47.82)"/>
    <path class="cls-1" d="M388,140.69a17.65,17.65,0,0,0-13.27,5.68l3.36-20.71h-5.9A6.3,6.3,0,0,0,366,131l-8,50.66h11.27l.8-5.27c2.32,3.28,7.36,6.31,13.52,6.31a18.73,18.73,0,0,0,15.27-7,24.77,24.77,0,0,0,5.84-16.32,19.83,19.83,0,0,0-4.56-13.27A15,15,0,0,0,388,140.69Zm1.76,28.63a11,11,0,0,1-8.15,3.52A11.76,11.76,0,0,1,371.56,167l1.68-10.63a12.75,12.75,0,0,1,10.32-5.84c5.67,0,9.59,3.92,9.59,9.92A12.52,12.52,0,0,1,389.79,169.32Z" transform="translate(-14.95 -47.82)"/>
    <path class="cls-1" d="M439.77,140.69a17.65,17.65,0,0,0-13.27,5.68l.8-4.64H416l-8.88,55.9h5.9a6.31,6.31,0,0,0,6.22-5.32l2.51-15.95c2.32,3.28,7.36,6.31,13.52,6.31a18.73,18.73,0,0,0,15.27-7,24.77,24.77,0,0,0,5.84-16.32,19.83,19.83,0,0,0-4.56-13.27A15,15,0,0,0,439.77,140.69Zm1.76,28.63a10.92,10.92,0,0,1-8.15,3.52A11.76,11.76,0,0,1,423.3,167L425,156.37a12.75,12.75,0,0,1,10.32-5.84c5.67,0,9.59,3.92,9.59,9.92A12.52,12.52,0,0,1,441.53,169.32Z" transform="translate(-14.95 -47.82)"/>
    <path class="cls-1" d="M501.51,173.16c-1.84,0-2.8-.88-2.8-2.64,0-.48.16-1.52.4-3.12l1.28-7.76a25.09,25.09,0,0,0,.56-4.79c0-4.88-1.68-8.4-5.12-10.72s-7.67-3.44-12.87-3.44a35.51,35.51,0,0,0-14,2.56l-1.44,9.36a27.33,27.33,0,0,1,12-2.72c6.8,0,10.16,2.16,10.16,6.48a22.45,22.45,0,0,1-.32,2.88,26.68,26.68,0,0,0-12.72-3A19,19,0,0,0,464.89,160a12.32,12.32,0,0,0-4.8,10.32c0,7.28,5.6,12.39,14.31,12.39a18.34,18.34,0,0,0,13.28-5.27c.88,3.27,3.76,4.95,8.63,4.95a11.09,11.09,0,0,0,5.92-1.43l1.28-8.16A6.34,6.34,0,0,1,501.51,173.16Zm-14-3.12a12.55,12.55,0,0,1-9.2,4.08c-4.24,0-7-1.6-7-4.8,0-3.84,3.44-5.84,8.24-5.84a15.21,15.21,0,0,1,8.8,2.4Z" transform="translate(-14.95 -47.82)"/>
    <path class="cls-1" d="M539.66,145.14,527.82,168l-7.19-26.31H508.87l11.92,38.55c-3.12,5.35-6.64,8.07-10.64,8.07a10.86,10.86,0,0,1-5.75-1.68l-1.53,9.76a16.51,16.51,0,0,0,7.68,1.68c7.6,0,13.6-4,18.07-11.92l24.79-44.46h-8.16A6.3,6.3,0,0,0,539.66,145.14Z" transform="translate(-14.95 -47.82)"/>
    <path class="cls-1" d="M574.07,147.93c0-2-1.49-3.29-3.81-3.29h-5.12v11h2.44v-4.35h1.74l3.17,4.35h2.72L571.84,151A3,3,0,0,0,574.07,147.93Zm-3.92,1.31h-2.57V146.7h2.57c.91,0,1.46.48,1.46,1.31S571.12,149.24,570.15,149.24Z" transform="translate(-14.95 -47.82)"/>
    <path class="cls-1" d="M569.59,139.58a10.73,10.73,0,1,0,10.73,10.73A10.74,10.74,0,0,0,569.59,139.58Zm0,19.79a9.06,9.06,0,1,1,9.06-9.06A9.07,9.07,0,0,1,569.59,159.37Z" transform="translate(-14.95 -47.82)"/>
    <path class="cls-1" d="M95.65,97.08l13.21-49.26,13.19,49.26ZM140.28,129l25.5-44.15L121.61,110.3Zm13.24,26,62.66-13.19-62.66-13.21Zm-31.9,18.22,44.16,25.5-25.49-44.17Zm-26,13.24,13.2,49.25,13.2-49.25Zm-18.22-31.9-25.5,44.16,44.17-25.49Zm-13.23-26L15,141.73l49.26,13.21ZM96.1,110.32,51.94,84.82,77.43,129Z" transform="translate(-14.95 -47.82)"/>
  </g>
</svg>
