<svg width="1720" height="600" viewBox="0 0 1720 600" fill="none" xmlns="http://www.w3.org/2000/svg">
<g clip-path="url(#clip0_1897_10)">
<path d="M907.868 311.087L875.933 376.238L862.229 299.326H846.211C842.435 299.337 838.737 300.406 835.537 302.411C832.336 304.417 829.761 307.278 828.104 310.672L796.169 376.205L788.868 334.081C787.219 324.485 782.234 315.78 774.792 309.501C767.351 303.223 757.931 299.774 748.194 299.764H685.291C685.291 299.764 751.429 316.805 756.956 348.066L771.143 428.18H801.797L840.112 351.088L854.905 428.371H885.807L949.676 299.921H925.919C922.175 299.915 918.503 300.948 915.312 302.906C912.121 304.863 909.536 307.668 907.845 311.008L907.868 311.087Z" fill="#140F6D"/>
<path d="M1021.9 296.585C1012.38 296.353 1002.91 298.12 994.108 301.77C985.308 305.421 977.37 310.874 970.806 317.78C964.163 324.59 958.952 332.662 955.479 341.519C952.007 350.375 950.344 359.838 950.588 369.348C950.25 377.668 951.746 385.961 954.97 393.638C958.194 401.315 963.068 408.189 969.244 413.773C982.237 425.215 999.119 431.244 1016.42 430.621C1032.31 431.5 1048.08 427.499 1061.63 419.153L1065.98 389.511C1053.51 396.313 1039.56 399.914 1025.36 399.991C1002.9 399.991 986.295 390.791 985.306 373.426H1077.24C1078.7 366.116 1079.45 358.684 1079.49 351.23C1079.66 343.98 1078.35 336.772 1075.63 330.049C1072.91 323.326 1068.84 317.232 1063.67 312.142C1058.14 306.83 1051.58 302.708 1044.4 300.032C1037.21 297.357 1029.56 296.183 1021.9 296.585ZM1044.88 350.5H987.98C989.542 343.125 993.639 336.529 999.559 331.861C1005.48 327.193 1012.85 324.746 1020.38 324.946C1026.31 324.386 1032.22 326.201 1036.8 329.992C1041.39 333.783 1044.29 339.24 1044.86 345.165C1044.98 346.352 1045 347.546 1044.93 348.737L1044.88 350.5Z" fill="#140F6D"/>
<path d="M1191.16 296.584C1183.22 296.453 1175.34 298 1168.04 301.126C1160.73 304.252 1154.17 308.887 1148.79 314.725L1159.52 248.588H1140.68C1135.89 248.617 1131.28 250.347 1127.66 253.469C1124.03 256.591 1121.64 260.901 1120.91 265.627L1095.35 427.375H1131.3L1133.85 410.526C1139.01 416.976 1145.59 422.148 1153.08 425.643C1160.57 429.138 1168.76 430.86 1177.02 430.677C1186.34 430.993 1195.6 429.125 1204.07 425.225C1212.53 421.324 1219.97 415.499 1225.78 408.212C1238.07 393.652 1244.7 375.146 1244.44 356.094C1244.9 340.663 1239.7 325.597 1229.84 313.725C1225.13 308.097 1219.2 303.624 1212.5 300.652C1205.79 297.681 1198.49 296.289 1191.16 296.584ZM1196.78 388.016C1193.46 391.592 1189.43 394.439 1184.95 396.372C1180.47 398.306 1175.64 399.286 1170.76 399.248C1164.26 399.179 1157.89 397.425 1152.27 394.157C1146.65 390.888 1141.98 386.218 1138.71 380.603L1144.08 346.647C1147.65 341.101 1152.52 336.507 1158.26 333.259C1164 330.011 1170.44 328.207 1177.03 328.001C1180.91 327.845 1184.77 328.452 1188.41 329.789C1192.05 331.127 1195.38 333.168 1198.23 335.795C1201.08 338.422 1203.38 341.585 1205.01 345.102C1206.64 348.62 1207.55 352.424 1207.71 356.296C1207.77 357.418 1207.77 358.543 1207.71 359.665C1207.98 370.15 1204.12 380.323 1196.97 387.994L1196.78 388.016Z" fill="#140F6D"/>
<path d="M1356.48 296.586C1348.53 296.454 1340.65 298.002 1333.35 301.128C1326.04 304.254 1319.48 308.888 1314.1 314.726L1316.65 299.91H1280.58L1252.22 478.428H1271.12C1275.91 478.421 1280.54 476.708 1284.18 473.595C1287.83 470.483 1290.24 466.175 1290.99 461.445L1299 410.517C1304.17 416.965 1310.75 422.137 1318.24 425.631C1325.72 429.126 1333.92 430.849 1342.18 430.667C1351.49 430.983 1360.75 429.116 1369.22 425.216C1377.69 421.315 1385.12 415.489 1390.94 408.202C1403.23 393.642 1409.85 375.137 1409.59 356.084C1410.05 340.65 1404.86 325.58 1394.99 313.704C1390.3 308.103 1384.39 303.649 1377.72 300.682C1371.04 297.715 1363.78 296.314 1356.48 296.586ZM1362.09 388.018C1358.78 391.608 1354.75 394.463 1350.27 396.397C1345.79 398.332 1340.95 399.304 1336.07 399.25C1329.54 399.203 1323.15 397.459 1317.5 394.19C1311.86 390.921 1307.16 386.239 1303.88 380.605L1309.31 346.649C1312.88 341.103 1317.75 336.508 1323.49 333.259C1329.23 330.011 1335.67 328.208 1342.27 328.003C1346.14 327.847 1350 328.454 1353.64 329.791C1357.28 331.128 1360.62 333.169 1363.46 335.797C1366.31 338.424 1368.62 341.587 1370.24 345.104C1371.87 348.622 1372.79 352.425 1372.94 356.298C1373.01 357.42 1373.01 358.545 1372.94 359.667C1373.19 370.159 1369.32 380.332 1362.15 387.996L1362.09 388.018Z" fill="#140F6D"/>
<path d="M1553.63 400.283C1547.76 400.283 1544.65 397.486 1544.65 391.847C1544.65 390.252 1545.16 387.04 1545.93 381.884L1550.01 357.093C1551.11 352.064 1551.71 346.94 1551.81 341.795C1552.3 335.158 1551.06 328.507 1548.19 322.502C1545.32 316.497 1540.93 311.346 1535.46 307.559C1523.19 299.809 1508.86 295.977 1494.36 296.573C1479.06 296.254 1463.86 299.036 1449.67 304.75L1445.12 334.674C1457.06 328.906 1470.17 325.936 1483.43 325.991C1505.14 325.991 1515.88 332.899 1515.88 346.693C1515.73 349.777 1515.39 352.849 1514.86 355.892C1502.32 349.37 1488.37 346.066 1474.24 346.277C1460.75 345.982 1447.54 350.195 1436.72 358.251C1431.7 362.103 1427.68 367.11 1425.01 372.845C1422.35 378.581 1421.1 384.876 1421.38 391.195C1421.38 414.446 1439.26 430.767 1467.08 430.767C1474.91 430.94 1482.7 429.539 1489.99 426.644C1497.27 423.75 1503.9 419.422 1509.48 413.919C1512.29 424.365 1521.47 429.734 1537.03 429.734C1543.63 430.009 1550.18 428.429 1555.93 425.174L1560.02 399.125C1557.97 399.853 1555.81 400.244 1553.63 400.283ZM1508.92 390.319C1505.18 394.402 1500.64 397.668 1495.59 399.91C1490.53 402.153 1485.06 403.324 1479.53 403.349C1466 403.349 1457.07 398.239 1457.07 388.017C1457.07 375.762 1468.06 369.371 1483.37 369.371C1493.3 368.995 1503.1 371.668 1511.45 377.031L1508.92 390.319Z" fill="#140F6D"/>
<path d="M1675.42 310.784L1637.62 383.795L1614.66 299.787H1577.11L1615.18 422.895C1605.22 439.968 1593.99 448.662 1581.2 448.662C1574.7 448.634 1568.34 446.777 1562.84 443.304L1558.03 474.463C1565.66 478.204 1574.07 480.046 1582.56 479.832C1594.79 479.593 1606.7 475.889 1616.91 469.151C1627.12 462.413 1635.2 452.916 1640.23 441.766L1719.38 299.787H1693.33C1689.62 299.79 1685.99 300.818 1682.83 302.759C1679.66 304.7 1677.1 307.477 1675.42 310.784Z" fill="#140F6D"/>
<path d="M257.555 157.329L299.734 0L341.857 157.329H257.555ZM400.076 259.246L481.513 118.25L340.531 199.52L400.076 259.246ZM442.356 342.269L642.512 300.157L442.401 257.966L442.356 342.269ZM340.486 400.456L481.48 481.896L400.076 340.899L340.486 400.456ZM257.454 442.738L299.599 600L341.744 442.738H257.454ZM199.269 340.944L117.831 481.941L258.824 400.535L199.269 340.944ZM157 257.82L0 299.899L157.258 342.09L157 257.82ZM258.97 199.554L117.944 118.148L199.325 259.235L258.97 199.554Z" fill="#140F6D"/>
</g>
<defs>
<clipPath id="clip0_1897_10">
<rect width="1719.38" height="600" fill="white"/>
</clipPath>
</defs>
</svg>
