<svg width="97" height="120" viewBox="0 0 97 120" fill="none" xmlns="http://www.w3.org/2000/svg">
<path d="M48.6543 24.7456C48.6543 11.079 59.7333 0 73.3999 0H84.329C85.5197 0 86.3314 1.20584 85.8833 2.30902L80.3717 15.8782C80.0964 16.556 79.4004 16.9645 78.6745 16.8746C68.2467 15.5825 57.9615 20.1739 51.9611 28.7996L51.6831 29.1994C50.753 30.5364 48.6543 29.8783 48.6543 28.2495V24.7456Z" fill="#7ACB0B"/>
<path fill-rule="evenodd" clip-rule="evenodd" d="M54.3009 40.6673C75.8964 20.2863 108.742 47.6968 92.5543 72.5907C87.2886 80.6884 81.1166 88.1592 74.158 94.8582L48.4416 120L22.6801 95.1636C15.7338 88.4668 9.57365 80.9998 4.31899 72.9073C-11.8397 48.0221 20.9996 20.6552 42.5636 41.0359L48.4416 46.5914L54.3009 40.6673ZM22.0425 44.039C14.1574 44.039 8.08714 51.001 9.16124 58.8126C9.26609 59.5752 10.2295 59.8465 10.7168 59.2507L11.1337 58.7411C13.9393 55.3115 17.783 52.8859 22.0863 51.8294L22.754 51.6655C22.9599 51.6149 23.1502 51.5142 23.3078 51.3724L29.0425 46.2112C29.8913 45.4472 29.3509 44.039 28.2089 44.039H22.0425Z" fill="#7ACB0B"/>
</svg>
